<?xml version="1.0" standalone="no"?>
<!DOCTYPE svg PUBLIC "-//W3C//DTD SVG 1.1//EN" "http://www.w3.org/Graphics/SVG/1.1/DTD/svg11.dtd" >
<!--
2013-9-30: Created.
-->
<svg>
<metadata>
Created by iconfont
</metadata>
<defs>

<font id="iconfont" horiz-adv-x="1024" >
  <font-face
    font-family="iconfont"
    font-weight="500"
    font-stretch="normal"
    units-per-em="1024"
    ascent="896"
    descent="-128"
  />
    <missing-glyph />
    
    <glyph glyph-name="x" unicode="x" horiz-adv-x="1001"
d="M281 543q-27 -1 -53 -1h-83q-18 0 -36.5 -6t-32.5 -18.5t-23 -32t-9 -45.5v-76h912v41q0 16 -0.5 30t-0.5 18q0 13 -5 29t-17 29.5t-31.5 22.5t-49.5 9h-133v-97h-438v97zM955 310v-52q0 -23 0.5 -52t0.5 -58t-10.5 -47.5t-26 -30t-33 -16t-31.5 -4.5q-14 -1 -29.5 -0.5
t-29.5 0.5h-32l-45 128h-439l-44 -128h-29h-34q-20 0 -45 1q-25 0 -41 9.5t-25.5 23t-13.5 29.5t-4 30v167h911zM163 247q-12 0 -21 -8.5t-9 -21.5t9 -21.5t21 -8.5q13 0 22 8.5t9 21.5t-9 21.5t-22 8.5zM316 123q-8 -26 -14 -48q-5 -19 -10.5 -37t-7.5 -25t-3 -15t1 -14.5
t9.5 -10.5t21.5 -4h37h67h81h80h64h36q23 0 34 12t2 38q-5 13 -9.5 30.5t-9.5 34.5q-5 19 -11 39h-368zM336 498v228q0 11 2.5 23t10 21.5t20.5 15.5t34 6h188q31 0 51.5 -14.5t20.5 -52.5v-227h-327z" />
    

    
    <glyph glyph-name="saoyisao" unicode="&#58880;" d="M900.583644 745.172853l0-206.341508 51.588959 0 0 232.137011c0 56.423057-51.588959 51.574632-51.588959 51.574632L668.437423 822.542988l0-51.574632 206.351742 0C874.789165 770.968355 900.583644 770.160967 900.583644 745.172853zM126.755404 745.171829c0 24.988114 25.793456 25.795503 25.793456 25.795503l206.353788 0 0 51.574632-232.147244 0c0 0-51.588959 4.847401-51.588959-51.574632l0-232.137011 51.588959 0L126.755404 745.171829zM900.582621 22.929478 900.582621 22.929478c0.001023-25.001417-25.793456-25.806759-25.793456-25.806759L668.4364-2.877281l0-51.574632 232.146221 0c0 0 51.588959-4.810562 51.588959 51.574632L952.17158 229.285313l-51.588959 0L900.582621 22.929478zM126.755404 22.929478 126.755404 229.285313 75.167468 229.285313l0-232.162594c0-56.388265 51.588959-51.572586 51.588959-51.572586l232.148267 0 0 51.572586L152.54886-2.877281C152.54886-2.877281 126.755404-2.068869 126.755404 22.929478zM75.167468 409.847691l877.007181 0 0-51.587935-877.007181 0 0 51.587935Z"  horiz-adv-x="1024" />

    
    <glyph glyph-name="wxbsousuotuiguang" unicode="&#58912;" d="M937.798221 126.144234 714.895525 349.130841c23.821545 45.681412 37.589107 97.495498 37.589107 152.564721 0 182.559872-148.560524 331.078441-331.079464 331.078441-182.623317 0-331.098907-148.517545-331.098907-331.078441 0-182.559872 148.47559-331.078441 331.098907-331.078441 60.575634 0 117.27089 16.647145 166.206416 45.221948L807.552831-4.100132c17.938558-17.939581 41.551348-26.867928 65.12423-26.867928s47.182602 8.928347 65.123206 26.867928c17.396205 17.396205 27.033703 40.550555 27.033703 65.164139C964.831924 85.678614 955.194426 108.83194 937.798221 126.144234M133.027248 501.695562c0 158.989037 129.34795 288.358477 288.378943 288.358477 158.948105 0 288.3595-129.36944 288.3595-288.358477 0-99.206466-50.437739-186.899714-126.950344-238.795665-1.044796-0.416486-1.876744-1.252527-2.877537-1.835811-45.515636-30.03813-99.999528-47.727001-158.530596-47.727001C262.375198 213.337085 133.027248 342.663546 133.027248 501.695562M907.594315 26.103774c-19.273972-19.191084-50.562583-19.191084-69.836555 0L623.6995 240.202966c26.157753 20.274766 49.186236 44.305065 68.292386 71.421656l215.601406-215.683271c9.344832-9.262968 14.518668-21.694091 14.518668-34.877345S916.939147 35.448606 907.594315 26.103774M215.169059 508.20993c0 0 42.156122 211.011878 234.186693 224.946238C449.355753 733.156168 185.944458 764.444778 215.169059 508.20993"  horiz-adv-x="1024" />

    
    <glyph glyph-name="jiantouarrow486" unicode="&#59050;" d="M171.15136 554.99776l684.02176 0-342.016-341.99552L171.15136 554.99776z"  horiz-adv-x="1024" />

    
    <glyph glyph-name="scenery" unicode="&#58915;" d="M958.113383 370.90802l-149.995903 0 0-202.902832 0-50.729405 83.326305 0 0-67.63994 49.996902 0 0-67.637941L74.822454-18.002099l0 67.637941 50.001899 0 0 67.63994 99.993404 0L224.817758 370.90802 62.363502 370.90802l229.123055 152.193413L129.027703 523.101433l362.442264 236.727299L491.469967 793.654798l33.324406 0 0-33.826066 383.317111-236.727299-168.177576 0L958.113383 370.90802 958.113383 370.90802zM274.819456 370.90802l0-202.902832 83.326704 0L358.146161 370.90802 274.819456 370.90802 274.819456 370.90802zM491.469967 370.90802l-83.321708 0 0-202.902832 83.321708 0L491.469967 370.90802 491.469967 370.90802zM624.789177 370.90802 541.456876 370.90802l0-202.902832 83.332301 0L624.789177 370.90802 624.789177 370.90802zM674.788278 168.005188l83.327304 0L758.115582 370.90802l-83.327304 0L674.788278 168.005188 674.788278 168.005188z"  horiz-adv-x="1024" />

    
    <glyph glyph-name="shouye" unicode="&#58909;" d="M542.958082 321.355241c-0.121773-0.183172-12.353352-17.853623-30.756491-17.853623-17.822924 0-29.057803 16.236799-29.871331 17.457604-9.191336 14.417361-28.254507 18.778692-42.824341 9.750061-14.650675-9.109472-19.155269-28.367071-10.055007-43.017746 10.767228-17.324574 40.302915-46.657646 82.751702-46.657646 42.224684 0 72.126714 29.098735 83.137489 46.291302 9.211802 14.386662 5.03262 33.317827-9.222035 42.723034C571.842946 339.484134 552.545438 335.467657 542.958082 321.355241zM852.338339 128.818133c-0.618077 0.461511-1.300622 0.75827-1.940189 1.167592l-74.792427 74.801636c-12.20088 12.20088-31.966039 12.20088-44.166919 0-12.20088-12.190647-12.20088-31.966039 0-44.166919l59.282175-59.289338c-62.056358-67.240427-157.496034-102.70515-278.264585-102.70515-121.145128 0-216.804814 35.68371-278.844799 103.325273l58.663074 58.670238c12.20088 12.20088 12.20088 31.976272 0 44.166919-12.20088 12.20088-31.986505 12.20088-44.166919 0l-78.877465-78.887698c-0.213871-0.213871-0.356111-0.469698-0.562818-0.688685-0.802272-0.847298-1.493004-1.75497-2.183735-2.672876-0.565888-0.74906-1.149173-1.479701-1.639337-2.2656-0.567935-0.914836-1.023306-1.870604-1.489934-2.830465-0.428765-0.880043-0.87595-1.744737-1.217734-2.654456-0.355087-0.948605-0.596588-1.917676-0.857531-2.892887-0.258896-0.964978-0.537236-1.917676-0.701988-2.90005-0.166799-0.99363-0.215918-1.991354-0.287549-2.997264-0.068562-0.983397-0.161682-1.955538-0.137123-2.939959 0.023536-1.020236 0.167822-2.026146 0.291642-3.043313 0.119727-0.976234 0.215918-1.944282 0.427742-2.908236 0.214894-0.978281 0.544399-1.926886 0.856507-2.889817 0.318248-0.983397 0.620124-1.958608 1.037632-2.912329 0.390903-0.890276 0.889253-1.737574 1.369184-2.600221 0.532119-0.957815 1.057075-1.907443 1.698688-2.816139 0.184195-0.261966 0.295735-0.552585 0.48914-0.810459 73.04155-97.422843 192.730513-148.919704 346.134345-148.919704s273.092795 51.496861 346.134345 148.929938C868.941482 98.895637 866.134553 118.467391 852.338339 128.818133zM855.451236 635.839749c-9.140171 14.620999-28.40698 19.073404-43.038212 9.912767-14.630209-9.150404-19.063171-28.417213-9.912767-43.038212 45.945425-73.438593 70.235644-162.951279 70.235644-258.858606 0-39.733956-4.270257-76.905554-12.709463-110.47716-4.198625-16.724917 5.957689-33.694403 22.692838-37.903262 2.552126-0.64059 5.114484-0.945535 7.625678-0.945535 13.980409 0 26.709315 9.465582 30.278607 23.639396 9.66922 38.543851 14.580067 80.829933 14.580067 125.687584C935.203628 451.496254 907.629619 552.467923 855.451236 635.839749zM309.257459 700.798203c57.94369 44.655036 127.812991 68.26271 202.053855 68.26271 75.196633 0 145.808854-24.187889 204.209962-69.940932 5.724375-4.484128 12.505825-6.649444 19.246343-6.649444 9.272177 0 18.443048 4.107551 24.604374 11.966543 10.645454 13.583366 8.256034 33.216519-5.317099 43.851741C684.551938 802.745083 600.611154 831.52864 511.311315 831.52864c-88.160899 0-171.216523-28.102035-240.181221-81.256652-13.665231-10.532891-16.207124-30.145577-5.67321-43.800575C275.989775 692.807205 295.622928 690.244846 309.257459 700.798203zM164.921143 233.38877c-8.439206 33.57263-12.709463 70.744227-12.709463 110.466927 0 96.853885 24.737404 187.067536 71.527057 260.881682 9.232269 14.569834 4.910846 33.867342-9.658987 43.10882-14.610766 9.242502-33.877575 4.900613-43.10882-9.658987-53.134151-83.839477-81.225953-185.623651-81.225953-294.332539 0-44.847417 4.910846-87.133499 14.580067-125.677351 3.568269-14.183024 16.287965-23.639396 30.278607-23.639396 2.511193 0 5.073552 0.304945 7.625678 0.945535C158.962431 199.694367 169.119769 216.662831 164.921143 233.38877zM351.116823 581.505259c-74.627674 0-135.346571-51.375088-135.346571-114.524336S276.489148 352.45761 351.116823 352.45761 486.463394 403.832697 486.463394 466.981946 425.744497 581.505259 351.116823 581.505259zM351.116823 414.925337c-39.499619 0-72.878844 23.842011-72.878844 52.05661s33.379225 52.05661 72.878844 52.05661 72.878844-23.842011 72.878844-52.05661S390.616442 414.925337 351.116823 414.925337zM673.866574 581.505259c-74.627674 0-135.346571-51.375088-135.346571-114.524336S599.2389 352.45761 673.866574 352.45761s135.346571 51.375088 135.346571 114.524336S748.494249 581.505259 673.866574 581.505259zM673.866574 414.925337c-39.499619 0-72.878844 23.842011-72.878844 52.05661s33.379225 52.05661 72.878844 52.05661 72.878844-23.842011 72.878844-52.05661S713.367217 414.925337 673.866574 414.925337z"  horiz-adv-x="1024" />

    
    <glyph glyph-name="meitimeirong" unicode="&#58939;" d="M530.048051 216.959589l-42.22059 0c-14.034645 0-25.412786-11.379165-25.412786-25.412786 0-14.034645 11.379165-25.406646 25.412786-25.406646l42.22059 0c14.034645 0 25.412786 11.373025 25.412786 25.406646C555.461861 205.580424 544.082696 216.959589 530.048051 216.959589zM732.99423 789.123854C717.085912 795.824463 512.756223 878.690776 332.12119 792.411737c-107.888196-51.5337-183.321212-151.499459-224.214575-297.116955-56.583716-201.494107-59.078537-329.280492-8.084119-414.305981 53.03489-88.424912 155.848511-117.300566 274.842649-143.482879 2.75474-0.607844 5.509481-0.905626 8.227382-0.905626 3.569292 0 7.02602 0.623193 10.366092 1.577938 2.362814-0.725524 4.821819-1.231037 7.42204-1.231037 14.034645 0 25.412786 11.379165 25.412786 25.412786l0 31.087019c26.66429-10.181897 54.423517-15.873526 82.847893-15.873526 41.522696 0 81.678254 12.078083 119.019721 32.877805l0-48.091298c0-14.034645 11.379165-25.412786 25.412786-25.412786 3.803629 0 7.378038 0.893346 10.617825 2.391467 5.443989-1.099031 11.175527-1.14815 16.923438 0.325411 104.742553 26.728758 185.933713 100.31266 234.811934 212.798571 35.793204 82.382289 41.681308 156.798139 41.879829 159.459758C989.627145 680.30445 752.439094 781.479757 732.99423 789.123854zM165.210739 120.201895c-30.65416 51.106981-33.761941 132.364657-9.188266 251.632017 1.12973-0.155543 2.2656-0.291642 3.423983-0.291642 1.904373 0 3.840468 0.216941 5.776563 0.670266 0.461511 0.107447 1.592264 0.375553 3.14462 0.756223 0.019443-0.376577-0.041956-0.737804-0.005117-1.116427 0.008186-0.083911 0.021489-0.167822 0.029676-0.251733-0.648776-5.891174 0.097214-11.598152 1.980097-16.874319 17.987676-130.693598 98.514711-268.607644 204.895577-335.647503l0-3.567245C262.241656 41.207773 197.893092 65.690374 165.210739 120.201895zM227.185232 326.906677c9.467629-0.655939 21.144576-1.159406 34.714639-1.159406 90.159416 0 263.59549 22.246677 423.804309 169.165818 17.863856-44.725644 51.41909-99.402941 112.535029-124.30919-17.904789-159.826102-146.245805-342.202802-289.298895-342.202802C379.1329 28.401096 261.07611 179.438021 227.185232 326.906677zM881.615129 318.060195c-0.181125-2.457981-20.020986-239.548818-202.828498-299.594379l0 27.02961c98.671277 81.658811 167.93478 223.497237 172.180478 349.933881 4.916986 18.479887-4.5312 38.096666-22.766516 45.229111-69.854974 27.342742-85.688591 130.987287-85.912695 132.49564-0.084934 0.605797-0.315178 1.14815-0.427742 1.743714-0.251733 1.340531-0.575098 2.651386-0.970094 3.963265-0.343831 1.133823-0.720408 2.235924-1.161453 3.318582-0.478907 1.180895-1.028423 2.319835-1.629103 3.454682-0.585331 1.103124-1.201361 2.166339-1.88493 3.196809-0.659009 0.994654-1.372254 1.947352-2.133593 2.88777-0.858554 1.061169-1.759063 2.060939-2.720971 3.019777-0.428765 0.427742-0.748037 0.923022-1.201361 1.334391-0.406253 0.369414-0.876973 0.608867-1.294482 0.956791-1.073448 0.895393-2.190899 1.705851-3.355421 2.480494-0.937348 0.621147-1.870604 1.221828-2.845815 1.7519-1.202385 0.655939-2.442632 1.206478-3.714602 1.730411-1.00284 0.411369-1.995447 0.814552-3.021823 1.13587-1.324158 0.418532-2.674922 0.718361-4.050246 0.988514-1.060145 0.207731-2.108011 0.403183-3.177366 0.51984-1.299599 0.141216-2.605338 0.181125-3.932566 0.184195-1.270946 0.007163-2.52552-0.032746-3.791349-0.152473-0.551562-0.054235-1.085728 0.013303-1.639337-0.065492-0.618077-0.084934-1.172709-0.317225-1.779529-0.430812-1.344624-0.25071-2.661619-0.565888-3.976568-0.961908-1.14508-0.343831-2.254344-0.727571-3.346211-1.170662-1.165546-0.472767-2.294252-1.007957-3.416819-1.600451-1.12052-0.591471-2.198062-1.219781-3.244904-1.913583-0.98749-0.653893-1.933025-1.355881-2.867304-2.109034-1.058099-0.854461-2.053776-1.752924-3.010567-2.711761-0.443092-0.444115-0.955768-0.775666-1.382487-1.24434C522.68434 424.195467 345.935824 401.711384 261.672698 401.892509c70.668503 25.756617 165.879981 69.214385 235.480152 134.208655 10.255575 9.579169 10.80816 25.66145 1.228991 35.923164-9.585309 10.249435-25.66145 10.82044-35.923164 1.228991-94.209662-87.979774-246.656703-134.760217-294.143227-147.740856 3.961218 15.864316 8.203846 32.127721 12.990872 49.171909 34.632775 123.33091 96.29209 207.015867 183.253674 248.735038 152.541185 73.16844 337.25307-3.877307 339.045903-4.640694 0.533143-0.229221 1.073448-0.447185 1.61887-0.651846C707.265242 717.357344 909.379473 637.469875 881.615129 318.060195z"  horiz-adv-x="1024" />

    
    <glyph glyph-name="quanbu" unicode="&#58980;" d="M1277.679758 340.207023 303.685404 340.207023C279.189738 340.207023 259.410628 359.78327 259.410628 384.025358 259.410628 408.21673 279.189738 427.843693 303.685404 427.843693L1277.679758 427.843693C1302.175425 427.843693 1321.954534 408.21673 1321.954534 384.025358 1321.954534 359.78327 1302.175425 340.207023 1277.679758 340.207023ZM1277.679758 785.997722 303.685404 785.997722C279.189738 785.997722 259.410628 805.624684 259.410628 829.816057 259.410628 854.007429 279.189738 873.583676 303.685404 873.583676L1277.679758 873.583676C1302.175425 873.583676 1321.954534 854.007429 1321.954534 829.816057 1321.954534 805.624684 1302.175425 785.997722 1277.679758 785.997722ZM67.553266-127.898569C30.632262-127.898569 0.710019-98.331336 0.710019-61.765341 0.710019-25.148631 30.632262 4.469318 67.553266 4.469318 104.474271 4.469318 134.447229-25.148631 134.447229-61.765341 134.447229-98.331336 104.474271-127.898569 67.553266-127.898569ZM67.553266 317.89213C30.632262 317.89213 0.710019 347.459363 0.710019 384.025358 0.710019 420.591353 30.632262 450.209301 67.553266 450.209301 104.474271 450.209301 134.447229 420.591353 134.447229 384.025358 134.447229 347.459363 104.474271 317.89213 67.553266 317.89213ZM67.553266 763.632113C30.632262 763.632113 0.710019 793.250062 0.710019 829.816057 0.710019 866.382051 30.632262 896 67.553266 896 104.474271 896 134.447229 866.382051 134.447229 829.816057 134.447229 793.250062 104.474271 763.632113 67.553266 763.632113ZM303.685404-17.947006 1277.679758-17.947006C1302.175425-17.947006 1321.954534-37.573969 1321.954534-61.765341 1321.954534-86.007429 1302.175425-105.583676 1277.679758-105.583676L303.685404-105.583676C279.189738-105.583676 259.410628-86.007429 259.410628-61.765341 259.410628-37.573969 279.189738-17.947006 303.685404-17.947006Z"  horiz-adv-x="1322" />

    
    <glyph glyph-name="quanbu-copy" unicode="&#58959;" d="M123.974 803.804h335.692c17.893 0 32.317-14.423 32.317-32.084v-335.713c0-17.872-14.423-32.296-32.317-32.296h-335.692c-17.427 0-32.084 14.423-32.084 32.296v335.713c0 17.661 14.657 32.084 32.084 32.084v0zM427.349 739.191v0h-270.846v-271.1h270.847v271.1h-0.001zM866.422 739.191v0h-270.867v-271.1h270.867v271.1zM563.47 803.804v0h335.481c17.893 0 32.55-14.423 32.55-32.084v-335.714c0-17.872-14.657-32.296-32.55-32.296h-335.481c-17.872 0-32.528 14.423-32.528 32.296v335.714c0 17.661 14.657 32.084 32.528 32.084v0zM156.504 29.039v0h270.847v270.849h-270.847v-270.849zM459.667-35.574v0h-335.692c-17.427 0-32.084 14.423-32.084 32.296v335.713c0 17.407 14.657 32.317 32.084 32.317h335.692c17.893 0 32.317-14.911 32.317-32.317v-335.713c0-17.871-14.423-32.296-32.317-32.296v0zM898.95-35.574v0h-335.481c-17.872 0-32.528 14.423-32.528 32.296v335.714c0 17.407 14.657 32.317 32.528 32.317h335.481c17.893 0 32.55-14.911 32.55-32.317v-335.713c0-17.872-14.657-32.297-32.55-32.297v0zM595.555 29.039v0h270.867v270.849h-270.867v-270.849z"  horiz-adv-x="1024" />

    
    <glyph glyph-name="guonei" unicode="&#58986;" d="M949.597453 698.827315 840.876286 791.347498c-7.996115 6.770194-19.067264 8.575306-28.811186 4.546549l-84.136236-34.785248L660.090826 718.524936c-8.955976-5.686513-13.919011-15.925714-12.80463-26.468838l-1.957585-82.328054-62.835094-47.070039-97.303116-17.805528-73.747631 40.101323-45.816488 89.465614c-6.934946 13.536294-23.451108 19.029402-37.153178 12.341073l-99.43978-48.538483c-9.621125-4.696975-7.841595-17.796318-7.841595-28.493961l0-31.381731-41.064254-34.392298-37.697577 0c-7.225565 0-14.219863-2.797719-19.430538-7.834432L72.65167 487.554494c-11.413957-11.026124-11.413957-29.283953 0-40.307008l44.144406-42.579771 25.350364-120.176057c1.336438-6.319939 4.803399-12.048407 9.893324-16.07921l91.814102-73.630974c4.990664-3.996011 11.132548-6.179746 17.529235-6.179746l101.155864 0 0-60.920488c0-15.44476 16.005532-35.756365 31.449269-35.756365l109.961414 0 50.176796-26.976398c8.839319-6.055926 20.303418-6.499018 29.595039-1.182942l69.26555 39.590694 95.553263 36.010145c5.102205 1.913583 9.452279 5.317099 12.70844 9.722432l60.166311 82.654488c3.481288 4.800329 12.417821 11.220552 12.417821 17.092283l0 78.455863c0 7.573489-10.128685 17.243733-15.500019 22.487154l-35.149545 34.19787 44.485167 29.306466c4.130064 2.707668 7.436366 6.472412 9.670244 10.876722l31.226189 62.35721 78.958306 54.969962c7.499811 5.273097 11.965519 13.861706 11.965519 22.992667L959.488731 677.490358C959.50408 685.745369 955.865203 693.50203 949.597453 698.827315zM896.668986 578.346313l-15.708773-15.688307-50.203402-34.314527c-3.807722-2.670829-6.945179-6.247284-9.009188-10.381441l-31.006178-61.95812-67.474764-44.287669c-14.933107-9.867742-16.943904-30.972409-4.136204-43.471071l51.64831-50.309826 0-60.58996-49.856501-68.539003-91.702562-34.964326-57.988716-32.793894-43.682895 29.79356c-4.644787 3.179412-10.119475 4.846378-15.782451 4.846378l-86.358857-0.995677 0 62.762439c0 15.441691-15.975856 31.381731-31.417547 31.381731L268.320095 248.836601 189.776228 311.598017l-19.978007 113.088638c-1.180895 5.519714-3.936659 10.5421-8.017604 14.381545l-29.362748 28.429493 25.674753 20.525476 33.516348 0c7.28287 0 14.331403 2.879584 19.530822 7.981788l49.735751 48.541553c5.309936 5.213745 8.396227 12.456706 8.396227 19.98824l-4.627391 8.806573 63.774489 51.006697 37.210483-72.632227c2.562359-4.984524 6.594185-9.129938 11.522428-11.797697l89.180112-48.576345c5.099135-2.700505 10.914584-3.801583 16.674775-3.13848l107.881033 12.81691c4.468778 0.562818 8.789177 2.145873 12.537548 4.691859l97.688903 67.097164c8.457626 5.838985 8.120958 11.029194 7.051603 21.231557l0 94.14417 45.429679 23.37129 64.012919 26.097378 79.06166-80.849376L896.67001 578.346313zM613.947903 44.854836l-78.614475 0c-17.33276 0-31.382754-14.053064-31.382754-31.381731 0-17.33276 14.049994-31.385824 31.382754-31.385824l78.614475 0c17.331737 0 31.381731 14.053064 31.381731 31.385824C645.329635 30.801772 631.27964 44.854836 613.947903 44.854836zM847.437725 158.331307l-27.207665-15.688307c-15.027252-8.66638-20.176528-27.860535-11.499915-42.872436 8.67559-15.006785 27.891234-20.152992 42.916439-11.486612l27.208689 15.693424c15.027252 8.66638 20.176528 27.856441 11.498892 42.86732C881.679597 161.856597 862.464977 166.997688 847.437725 158.331307z"  horiz-adv-x="1024" />

    
    <glyph glyph-name="chujingyou" unicode="&#59089;" d="M604.247472 306.57256c2.209318-12.068873 3.699252-24.353664 4.256954-36.919864l-112.460328-0.340761c-0.901533 21.303188-3.201925 41.395806-6.374174 60.180638l-35.953863 20.650319c6.126534-27.057239 9.641591-54.05308 11.010775-80.922031l-125.370359-0.407276L339.356476 396.671601c27.64871-0.779759 54.954613-4.075829 82.045621-9.890254l15.646352 18.285458 7.928576 63.915705c-9.549493 19.810185-19.034519 36.295648-27.027563 49.045019 10.853186-3.452635 21.36561-7.619538 31.567973-12.345166l6.001691 48.610114c-37.288255 15.176654-78.001515 23.63735-120.671337 23.63735-155.103544 0-284.8557-110.597911-314.558186-257.082146-0.935302-2.208295-1.36816-4.574179-1.243317-6.938016-3.326768-18.503423-5.163603-37.504172-5.163603-56.94392 0-176.968527 143.966902-320.934406 320.965106-320.934406 176.998203 0 320.968176 143.966902 320.968176 320.934406 0 32.719192-4.948709 64.284095-14.089903 94.01728L604.247472 306.57256 604.247472 306.57256zM339.356476 530.811694c13.403265-0.218988 22.330588-1.060145 33.059953-2.550079 4.075829-5.16258 35.706223-46.52871 60.929698-112.61894-32.873712 7.40362-62.667272 11.008728-93.989651 11.849886L339.356476 530.811694 339.356476 530.811694zM218.061946 504.748085c-14.369266-25.162076-31.103392-59.498092-44.443212-101.329826-36.264948-11.722996-66.868967-25.90602-90.756003-38.937824 26.40744 61.610196 74.766844 111.652939 135.200238 140.236951L218.062969 504.748085 218.061946 504.748085zM68.090283 319.197088c20.310581 13.125949 53.05945 31.816636 95.265714 47.492664-6.938016-28.894074-12.101619-62.014402-13.283538-98.466616l-88.917122-0.281409C61.870628 285.515988 64.233442 302.618505 68.090283 319.197088L68.090283 319.197088zM61.684386 236.623441l88.388073 0.280386c0.935302-29.544897 4.668323-60.930721 12.163017-93.737918-41.830711 15.829524-73.864288 34.362622-93.054349 46.837748-3.795443 15.081487-6.282077 30.664394-7.463995 46.648436L61.684386 236.623441 61.684386 236.623441zM85.414857 143.848455c22.827915-12.378935 52.060703-25.972535 86.649476-37.385469 9.329483-30.287817 22.081924-61.642942 38.873356-93.737918C155.67199 40.873152 111.199103 87.21255 85.414857 143.848455L85.414857 143.848455zM308.069913-15.732054c-17.916045 1.678222-34.522258 5.069459-51.070142 9.953699-20.493753 33.590026-37.103036 67.518766-49.38885 101.760638 29.268604-7.367805 64.661695-13.060457 100.457969-14.554484L308.068889-15.732054 308.069913-15.732054zM308.069913 112.407372c-31.31931 1.460258-62.48103 6.185886-94.083795 14.272052-5.939269 1.493004-11.755742 3.143597-17.444301 4.821819-9.582239 34.926464-14.868639 70.104661-15.957437 105.527428l127.485533 0.403183 0-124.993782L308.069913 112.407372 308.069913 112.407372zM308.069913 268.721487l-127.393435-0.403183c1.308809 32.904411 6.40692 65.99404 14.990413 99.178837 0.964978 3.668553 1.867534 7.27673 2.861164 10.856255 3.579525 1.02433 7.092535 2.02103 10.731412 2.983961 33.184797 8.708336 67.491137 13.748119 98.810447 15.118326L308.069913 268.721487 308.069913 268.721487zM308.069913 427.400462c-35.796274-1.309832-69.202105-6.593162-98.094132-13.592576 19.501146 52.965306 43.541679 91.095741 55.732325 108.451014 13.777795 3.577478 28.924773 6.03239 42.360783 7.432273l0-102.260012L308.068889 427.400462 308.069913 427.400462zM339.356476 237.495298l125.836987 0.405229c-0.74599-36.791951-6.221702-73.337285-16.108886-109.602234-36.234249-10.015098-73.961502-15.45704-109.757776-16.295128L339.3268 237.528044 339.356476 237.495298 339.356476 237.495298zM339.356476-16.884296l0 98.066503c31.321356 0.774643 64.413032 4.53734 99.057063 12.562107-12.625552-35.548634-29.857005-70.78823-51.315736-105.620549-15.424294-3.015683-29.854958-4.725628-47.771003-5.037736L339.356476-16.884296 339.356476-16.884296zM430.984337 0.440277c19.215644 35.331693 33.401738 69.790506 43.571355 103.006002 36.668131 11.353582 74.829266 27.649733 113.986077 50.16861C559.740816 83.171514 502.421342 27.314345 430.984337 0.440277L430.984337 0.440277zM602.596879 199.024102c-38.998199-25.53456-78.532611-45.471634-118.52751-59.775408 7.930623 34.674731 11.632945 67.765383 12.316513 98.741885l111.747083 0.37453c-0.901533-13.405311-2.736321-26.529213-5.505387-39.341007L602.596879 199.024102 602.596879 199.024102zM960.171788 489.539708l-107.021455-8.800433L717.892789 605.8886l126.393665 93.802386 12.440333-10.481725 15.429411 18.257829-53.962006 65.37494-0.313132-0.373507-1.52575 1.928932-205.019397-69.916373-86.924745 80.429821c-17.510816 17.290805-50.665936 34.456766-74.083276 38.315654l-55.547107 9.203616c-25.347295 4.198625-41.178865-8.67559-40.340777-30.010501 0.189312-4.511757 1.121544-9.393951 2.834558-14.589276 9.950629-29.698392 18.036795-53.804417 18.036795-53.804417 7.557116-22.485107 29.858028-52.343135 49.855478-66.681702l90.068342-69.26248-25.440415-205.362204 5.100158-2.830465-0.713244-0.86981 73.523527-42.23594 15.427364 18.287505-14.184047 11.974729 61.924351 132.086317 146.610102-112.772436 8.367575-99.028411 53.806463-45.407166 43.75862 127.113049 126.239146 68.700685-49.450249 41.73759L960.171788 489.539708 960.171788 489.539708z"  horiz-adv-x="1024" />

    
    <glyph glyph-name="chujing" unicode="&#58895;" d="M865.830631-11.510916c-42.794665 61.914118-82.492806 115.443265-115.117854 171.531702 18.411325 0 34.532491 16.487509 34.532491 34.531468 0 18.039865-8.521071 34.83846-26.932396 34.83846l-41.510416 0c-49.02967 94.556563-83.367733 187.897438-103.445 293.863864l11.648294 0c18.418488 0 33.345456 14.59337 33.345456 32.628118 0 18.039865-14.926968 32.670074-33.345456 32.670074L603.028203 588.552769c-4.770653 37.086663-8.030907 75.81164-9.686616 116.818589-0.725524 18.039865 5.082762 41.710984-32.559557 41.710984-2.65241 0.00307-14.809287 0.666172-17.266245 0L526.249539 747.082342l0 51.79976c0 18.010189-16.1007 34.534538-34.512025 34.534538-18.409279 0-34.55398-16.524348-34.55398-34.534538l0-51.79976-17.266245 0c-2.446725 0.666172-14.605649-0.095167-17.266245 0-18.375509 0.708128-31.79617-23.670096-32.521694-41.710984-1.650593-41.005926-4.916986-79.731926-9.689686-116.818589l-22.00927 0c-18.374486 0-33.31578-14.630209-33.31578-32.670074 0-18.034748 14.94027-32.628118 33.31578-32.628118l11.676947 0c-20.082384-105.966427-54.429657-199.307302-103.459327-293.863864l-41.49302 0c-18.409279 0-26.968212-16.798595-26.968212-34.83846 0-18.043958 16.123212-34.531468 34.532491-34.531468-32.633235-56.088436-72.321142-109.617583-115.117854-171.531702-10.304693-14.917758-6.330172-35.21299 8.93551-45.344744 5.691629-3.773953 12.150738-5.591345 18.547425-5.608741 3.059686-1.272993 6.415107-1.978051 9.93528-1.978051l155.398256 0c2.305509 0 4.539386 0.304945 6.66684 0.870834 15.592117-3.614317 31.987528 4.222161 38.389332 19.170618 17.916045 42.886763 70.76367 83.681888 136.240941 83.559091 65.473177 0.122797 118.363781-40.673351 136.278803-83.559091 6.372128-14.94641 22.786982-22.782889 38.356586-19.171642 2.12643-0.564865 4.358261-0.86981 6.662747-0.86981l155.398256 0c3.520173 0 6.874571 0.705058 9.934257 1.977028 6.408967 0.011256 12.883425 1.829671 18.587334 5.609765C872.16285-46.724928 876.172163-26.429697 865.830631-11.510916zM457.183534 678.015314l67.019393 0c5.125741-27.674293 12.356422-59.507302 19.312858-86.331227L439.917288 591.684086 457.183534 678.015314zM439.917288 522.617058l103.598496 0c19.300578-107.832937 54.284347-201.601554 98.943476-293.226345L341.010651 229.390713C385.670803 321.015503 420.611593 414.78412 439.917288 522.617058zM686.46859-12.642692c-32.617885 68.016093-108.37529 120.736828-194.751542 120.863718-86.411045-0.12689-162.106028-52.847625-194.715727-120.863718l-100.105952 0c39.825031 59.673078 72.851215 114.709555 104.889909 172.663478l379.862517 0c32.033577-57.953923 65.088414-112.990401 104.923678-172.663478L686.46859-12.642692z"  horiz-adv-x="1024" />

    
    <glyph glyph-name="meironghufu" unicode="&#59116;" d="M707.171098 27.848511c0-19.940145-19.053961-36.334533-42.537815-36.334533L361.105315-8.486022c-23.484877 0-42.980907 16.394389-42.980907 36.334533L318.124408 306.561303c0 19.940145 19.497053 36.334533 42.980907 36.334533l303.526945 0c23.484877 0 42.537815-16.394389 42.537815-36.334533L707.170075 27.848511zM550.754652 767.833969c18.61087 2.65855 19.497053 0.886183 19.497053 0.886183 10.191106 0 11.963473-11.07729 11.963473-24.814152l0-155.973354c0-11.520381 3.544733-33.675984-13.292748-33.675984L465.679022 554.256662c-13.735839 1.329275-16.394389 15.508205-16.394389 33.675984l-0.443092 87.292112C448.840518 700.925093 535.246447 765.174396 550.754652 767.833969zM430.230672 501.970832l168.379918 0 8.41874 0c13.735839 0 25.257244-10.191106 25.257244-22.598694l0-58.490136c0-12.406564-11.520381-22.598694-25.257244-22.598694L425.355641 398.283308c-14.178931 0-25.700335 10.191106-25.700335 22.598694l0 58.490136c0 12.406564 11.520381 22.598694 25.700335 22.598694L430.230672 501.970832zM687.674045 395.625782l0 110.332874c0 24.37106-20.383236 44.310182-46.52564 47.411823l0 1.772366L641.148405 773.594159c0 28.801976-24.37106 57.603953-45.196365 57.603953 0 0-28.801976 0-46.52564-3.987824-58.047044-11.520381-160.40427-84.189448-160.40427-153.757896l0-118.309546 0-1.329275c-26.586518-3.101641-47.411823-23.041786-47.411823-47.854914l0-110.332874-3.101641 0c-43.423999 0-79.31544-30.131251-79.31544-66.908876l0-323.910181c0-36.777625 35.891442-66.908876 79.31544-66.908876l349.166401 0c43.423999 0 79.31544 30.131251 79.31544 66.908876L766.990508 328.716906C766.989485 365.494531 731.098044 395.625782 687.674045 395.625782zM365.537254 265.352763l0.443092-199.840444c0-35.891442 136.476301-35.891442 136.476301 0l-0.443092 199.840444C502.013555 301.244204 365.537254 301.244204 365.537254 265.352763z"  horiz-adv-x="1024" />

    
    <glyph glyph-name="943caidan_jipiao" unicode="&#59017;" d="M351.301-63.768c-0.491 0-0.984 0-1.504 0.027-10.552 0.573-19.875 7.004-24.112 16.653l-75.7 171.703-172.183 92.747c-8.557 4.606-14.106 13.328-14.626 23.002-0.547 9.676 3.992 18.942 11.974 24.475l58.725 40.636c5.194 3.625 11.345 5.26 17.743 4.933l136.914-8.667 113.428 124.88L75.096 653.896c-7.846 5.478-12.357 14.581-11.947 24.12 0.41 9.54 5.713 18.207 14.024 22.976l89.099 51.02c6.97 3.952 15.282 4.743 22.855 2.263l393.352-131.53L755.343 797.281c20.176 20.113 48.253 31.124 79.174 31.124 33.053 0 64.957-12.918 87.566-35.457 45.574-45.38 47.679-123 4.484-166.09L753.211 451.805 870.384 60.92c2.216-7.33 1.286-15.235-2.54-21.885l-51.152-88.795c-4.839-8.395-13.724-13.71-23.43-14.009-9.46-0.054-18.918 4.497-24.222 12.565L552.49 276.967 423.366 158.492l-2.815-123.353a27.951 27.951 0 0 0-3.718-13.274l-41.254-71.624c-5.004-8.695-14.299-14.009-24.278-14.009z m206.464 411.433c1.148 0 2.269-0.082 3.417-0.218a28.019 28.019 0 0 0 19.985-12.346L790.802 17.37l22.5 39.055L694.815 451.67c-2.926 9.757-0.274 20.33 6.89 27.581l185.138 186.938c21.461 21.395 19.274 63.748-4.347 87.296-22.636 22.567-67.253 24.584-87.43 4.47L610.065 571.152a27.966 27.966 0 0 0-28.843-6.868L183.25 697.367 143.334 674.5l316.721-220.217a27.857 27.857 0 0 0 11.783-19.76 27.668 27.668 0 0 0-7.052-21.857L320.983 254.319c-5.742-6.296-13.971-9.566-22.528-9.13l-140.659 8.884-13.287-9.184 140.55-75.713a27.79 27.79 0 0 0 12.303-13.327l57.274-129.896 10.088 17.553 2.926 128.123a27.91 27.91 0 0 0 9.049 19.896l162.12 148.754a28.038 28.038 0 0 0 18.946 7.386z"  horiz-adv-x="1024" />

    
    <glyph glyph-name="jipiao" unicode="&#59203;" d="M699.792 7.493l98.475 97.991 0.241 417.471 121.645 121.645-8.448 140.551-139.344 7.241-121.967-121.967-416.908-0.161-97.991-98.475 249.727-166.538-176.433-176.433h-65.328l-37.008-37.169 91.475-61.063-7.081-66.293 67.018 6.677 61.467-92.199 37.169 37.008v65.328l176.433 176.433 166.859-250.048zM804.221 620.707l-3.218 53.099-52.455 2.736 2.333 45.456 93.004-4.827 5.631-93.647-45.295-2.816z"  horiz-adv-x="1024" />

    
    <glyph glyph-name="quanbu1" unicode="&#58937;" d="M142.08 104.82176H51.98336c-16.56832 0-30.0288-13.47072-30.0288-30.09536 0-16.62976 13.46048-30.11072 30.0288-30.11072H142.08c16.56832 0 30.0288 13.48608 30.0288 30.11072 0.00512 16.62464-13.46048 30.09536-30.0288 30.09536z m829.93664 0H352.29696a30.07488 30.07488 0 0 1-30.03904-30.09536c0-16.62976 13.4656-30.11072 30.03904-30.11072h619.71968c16.5632 0 30.0288 13.48608 30.0288 30.11072 0.00512 16.62464-13.4656 30.09536-30.0288 30.09536zM142.08 414.1056H51.98336c-16.56832 0-30.0288-13.48096-30.0288-30.1056s13.46048-30.10048 30.0288-30.10048H142.08c16.56832 0 30.0288 13.47584 30.0288 30.10048 0.00512 16.62464-13.46048 30.1056-30.0288 30.1056z m829.93664 0H352.29696c-16.57344 0-30.03904-13.48096-30.03904-30.1056s13.4656-30.10048 30.03904-30.10048h619.71968c16.5632 0 30.0288 13.47584 30.0288 30.10048 0.00512 16.62464-13.4656 30.1056-30.0288 30.1056zM142.08 723.3792H51.98336c-16.56832 0-30.0288-13.48096-30.0288-30.1056 0-16.61952 13.46048-30.10048 30.0288-30.10048H142.08c16.56832 0 30.0288 13.47584 30.0288 30.10048 0.00512 16.62464-13.46048 30.1056-30.0288 30.1056z m210.21696-60.20608h619.71456c16.56832 0 30.03392 13.48096 30.03392 30.10048s-13.4656 30.1056-30.03392 30.1056H352.29696c-16.56832 0-30.03392-13.48608-30.03392-30.1056s13.46048-30.10048 30.03392-30.10048z"  horiz-adv-x="1024" />

    
    <glyph glyph-name="shenghuo" unicode="&#59003;" d="M172.218-74.473c-46.545 0-102.4 37.236-102.4 88.436v465.455l-44.218-34.909c-2.327-2.327-6.982-4.655-9.309-4.655-4.655 0-9.309 2.327-13.964 6.982-2.327 2.327-2.327 6.982-2.327 11.636s2.327 9.309 6.982 11.636l446.836 353.745c16.291 11.636 34.909 18.618 58.182 18.618 20.945 0 41.891-6.982 58.182-18.618l449.164-353.745c6.982-6.982 9.309-16.291 2.327-23.273-2.327-4.655-9.309-6.982-13.964-6.982-4.655 0-6.982 2.327-11.636 4.655l-41.891 30.255v-463.127c0-27.927-6.982-48.873-20.945-65.164-13.964-13.964-30.255-23.273-53.527-23.273h-707.491zM600.436-41.891h279.273c11.636 0 32.582 4.655 37.236 34.909h2.327v509.673l-372.364 293.236c-9.309 6.982-23.273 11.636-37.236 11.636-13.964 0-25.6-4.655-37.236-11.636l-367.709-290.909v-493.382c0-27.927 37.236-53.527 67.491-53.527h253.673v216.436c0 16.291 6.982 32.582 20.945 44.218 16.291 13.964 39.564 23.273 67.491 23.273s51.2-6.982 67.491-23.273c11.636-11.636 20.945-27.927 20.945-44.218v-216.436zM512 207.127c-32.582 0-53.527-11.636-53.527-32.582v-214.109h107.055v214.109c0 18.618-20.945 32.582-53.527 32.582z"  horiz-adv-x="1025" />

    
    <glyph glyph-name="meirong-heicopy" unicode="&#58924;" d="M574.459-70.66c98.077 34.96 158.708 110.218 188.11 231.846 11.758 42.821 18.537 91.997 18.586 142.748l-0.009 7.915c2.34 59.973-20.478 126.967-97.346 228.116l-20.698 27.134-12.214-32.619c-22.307-59.095-92.446-103.636-197.398-134.427-57.852-16.968-107.146-25.818-184.892-36.422-12.853-1.992-24.377-5.246-35.278-9.708-27.913-5.066-29.229-60.358-11.822-148.781 26.256-169.313 87.765-230.968 226.726-274.997l-2.048-14.92h-184.087c-92.738 0-150.151 58.364-150.151 151.175v373.44c0 135.67 40.299 251.593 169.46 339.577 64.361 42.273 122.944 64.434 189.426 72.406 208.734 21.576 390.554-126.674 428.074-318.587 6.436-36.13 9.654-64.946 9.654-93.397 0.439-7.753 1.097-19.308 1.755-35.106 2.487-62.021 2.56-127.991-1.463-189.572l-0.219-4.096c-2.414-32.912-5.266-62.167-8.484-87.765-6.144-49.953-12.214-77.526-15.871-87.765-21.356-85.863-63.995-121.408-121.408-121.408h-186.354l-2.048 15.213zM742.383 312.8v-11.409c0-41.103-5.705-84.62-17.26-129.234-27.646-114.533-83.377-179.479-177.358-207.637l-16.456-4.9 11.556-87.619h219.998c74.966 0 132.964 48.417 158.196 150.517 4.242 11.409 10.971 42.127 17.553 95.152 3.291 26.403 6.217 56.389 8.703 90.179l0.293 4.388c2.113 33.523 3.318 72.697 3.318 112.152 0 41.158-1.311 82.011-3.892 122.517 0.282 24.457-3.229 55.759-10.177 94.669-41.615 213.049-241.207 375.78-469.981 352.157-72.479-8.63-136.401-32.912-205.809-78.403-142.911-97.346-187.89-226.799-187.89-375.488v-373.44c0-116.727 75.332-193.229 188.914-193.229h217.803l11.556 87.692-16.529 4.827c-137.498 40.591-190.743 89.374-215.317 247.351-11.995 61.289-10.971 103.124 1.828 106.269 4.388 1.097 11.19 2.414 9.654 2.414 81.914 10.971 132.452 20.113 192.571 37.739 99.467 29.109 172.019 70.431 208.296 129.161 56.316-79.135 72.187-130.331 70.431-175.822zM658.275 268.917c26.768 0 48.49-33.936 48.49-14.627 0 19.381-21.722 35.106-48.49 35.106-26.768 0-48.49-15.725-48.49-35.106 0-19.308 21.722 14.627 48.49 14.627zM346.197 268.917c26.841 0 48.49-33.936 48.49-14.627 0 19.381-21.649 35.106-48.49 35.106-26.768 0-48.417-15.725-48.417-35.106 0-19.308 21.649 14.627 48.417 14.627z"  horiz-adv-x="1024" />

    
    <glyph glyph-name="wenquan" unicode="&#58881;" d="M512 382.760929m-510.760929 0a510.760929 510.760929 0 1 1 1021.521858 0 510.760929 510.760929 0 1 1-1021.521858 0ZM421.068812 354.69218c-12.626964 12.18191-62.952028 38.928502-46.146903 81.521474 15.533542 39.478317 44.602218 57.064454 46.146903 122.373968 1.453651 59.080202-32.884148 87.749341-61.589411 67.964665-26.52551-18.319465 0-40.851771 0-40.851771s22.255592-34.074812-15.352198-95.078282c-37.607789-61.004194-38.51596-97.733435 15.352198-149.486141 53.959191-51.843739 74.216375 1.374177 61.589411 13.556087z m350.642621 1.832235c-27.978438 4.48811-17.168538-15.113775-12.989654-33.249728 4.269195-18.044919-10.8099-99.566393-246.721779-99.566392v0.274546c-235.911879 0-250.990975 81.796743-246.721779 99.932695 4.178884 18.136675 14.988784 37.830316-12.990376 33.250451s-51.96006-26.38029-51.96006-77.674936c0-46.164965 98.742754-144.265425 311.672215-144.265425s311.672215 97.825914 311.672215 143.807366c0 51.20289-23.981622 72.911557-51.960782 77.491423z m-216.017385-1.832235c-12.626964 12.18191-62.952028 38.928502-46.146903 81.521474 15.624576 39.478317 44.602218 57.064454 46.146903 122.373968 1.453651 59.080202-32.793114 87.749341-61.4991 67.964665-26.52551-18.319465 0-40.851771 0-40.851771s22.165281-34.074812-15.442508-95.078282-38.425648-97.733435 15.442508-149.486141c53.868157-51.843739 74.216375 1.374177 61.4991 13.556087z m134.715548 0c-12.626964 12.18191-63.043062 38.928502-46.146903 81.521474 15.533542 39.478317 44.511907 57.064454 46.146903 122.373968 1.453651 59.080202-32.884148 87.749341-61.589411 67.964665-26.52551-18.319465 0-40.851771 0-40.851771s22.255592-34.074812-15.352198-95.078282c-37.607789-61.004194-38.51596-97.733435 15.352198-149.486141 53.868157-51.843739 74.216375 1.374177 61.589411 13.556087"  horiz-adv-x="1024" />

    
    <glyph glyph-name="jiantou" unicode="&#58902;" d="M671.589 384.289l-270.231 270.189c-2.575 2.818-5.689 5.096-9.184 6.68-2.56 5.106-20.288 5.106-31.223-5.829-10.935-10.935-10.935-28.663 0-39.598 0.278-0.278 0.564-0.545 0.851-0.809l-0.021-0.021 230.691-230.691-231.94-231.94c-10.935-10.935-10.935-28.663 0-39.598s28.663-10.935 39.598 0l271.459 271.617z"  horiz-adv-x="1024" />

    
    <glyph glyph-name="jiantou_zuo" unicode="&#58903;" d="M352.411 384.289l39.518 39.518L622.62 654.498l0.021-0.021c0.264 0.287 0.531 0.573 0.809 0.851 10.935 10.935 28.663 10.935 39.598 0 10.935-10.935 10.935-28.663 0-39.598-0.278-0.278-0.564-0.545-0.851-0.809l0.021-0.021-230.69-230.691 231.94-231.94c10.935-10.935 10.935-28.663 0-39.598-10.935-10.935-28.663-10.935-39.598 0L352.332 384.209l0.079 0.08z"  horiz-adv-x="1024" />

    
    <glyph glyph-name="bangdan" unicode="&#58886;" d="M270.3 121.6c-8.7 32-17.4 64.1-26.1 96.1-16.8 61.9-33.6 123.9-50.5 185.8l-33 121.5c-0.3 1.1-0.6 2.1-0.9 3.2-20.1-11.7-40.1-23.4-60.2-35l87.6-74.7c46.7-39.8 93.4-79.6 140.1-119.5 10.9-9.3 21.8-18.6 32.8-27.9 10-8.5 21.9-12.9 35-9.3 12.6 3.5 21.1 13 25.1 25.1l33.6 99.9c20.4 60.6 40.7 121.1 61.1 181.7 9.8 29.1 19.6 58.3 29.4 87.3h-69.4c12.5-32 25.1-64.4 37.6-96.7 23.2-59.8 46.5-119.6 69.7-179.3 12.4-32 24.8-63.9 37.3-95.9 4.7-12.1 12.1-21.5 25.1-25.1 11.8-3.2 26.7-0.2 35 9.3 25.4 28.6 50.7 57.3 76.1 85.9 40.8 46.1 81.6 92.2 122.5 138.4 9.9 11.2 19.9 22.4 29.8 33.7-20.1 11.7-40.1 23.4-60.2 35-6.8-31.1-13.6-62.1-20.4-93.2-13.7-62.4-27.3-124.8-41-187.3-10.4-47.7-20.8-95.3-31.3-143-1-4.7-2-9.3-3.1-14 11.6 8.8 23.1 17.6 34.7 26.4l-81-0.3c-60.2-0.2-120.5-0.5-180.7-0.7-62.4-0.3-124.8-0.5-187.3-0.8-33.5-0.1-67-0.3-100.5-0.4h-1.8c-19.6-0.1-36-16.3-36-36 0-19.6 16.4-36.1 36-36l81 0.3c60.2 0.2 120.5 0.5 180.7 0.7 62.4 0.3 124.8 0.5 187.3 0.8 33.5 0.1 67 0.3 100.5 0.4h1.8c15.4 0.1 31.3 10.9 34.7 26.4 6.8 31.1 13.6 62.1 20.4 93.2 13.7 62.4 27.3 124.8 41 187.3 10.4 47.7 20.8 95.3 31.3 143 1 4.7 2 9.3 3.1 14 3.5 15.9-2.1 32.2-16.5 40.7-13.3 7.8-33 6.4-43.6-5.6-25.4-28.6-50.7-57.3-76.1-85.9-40.8-46.1-81.6-92.2-122.5-138.4-9.9-11.2-19.9-22.4-29.8-33.7 20.1-5.3 40.1-10.6 60.2-15.9-12.5 32.2-25.1 64.5-37.6 96.7-23.2 59.8-46.5 119.6-69.7 179.4-12.4 32-24.8 63.9-37.3 95.9-1.7 6.1-4.8 11.4-9.3 15.9-6.7 6.7-15.9 10.5-25.5 10.5-16.7 0-29.6-11.1-34.7-26.4l-33.6-99.9c-20.4-60.6-40.7-121.2-61.1-181.8-9.8-29.1-19.6-58.3-29.4-87.4 20.1 5.3 40.1 10.6 60.2 15.9l-87.6 74.7c-46.7 39.8-93.4 79.6-140.1 119.5-10.9 9.3-21.8 18.6-32.8 27.9-12.4 10.6-28.8 14.3-43.6 5.6-14-8.2-20.8-25.1-16.5-40.7 8.7-32 17.4-64.1 26.1-96.1 16.8-61.9 33.6-123.9 50.5-185.8l33-121.5c0.3-1.1 0.6-2.1 0.9-3.2 5.1-18.9 25.4-30.3 44.3-25.1 19 5.4 30.3 25.5 25.2 44.4z"  horiz-adv-x="1024" />

    
    <glyph glyph-name="menpiao_dongzhiwuyuan" unicode="&#59000;" d="M999.883743 587.844641c43.282782 75.193563 8.803503 176.797635-77.762062 226.682789-70.613244 44.705178-163.042353 32.843012-220.080417-28.243251a501.785358 501.785358 0 0 1-376.703571 0c-57.037041 61.086264-149.467173 72.948429-220.080417 28.243251C15.392572 764.642277-19.454074 663.038204 24.195052 587.844641a139.393747 139.393747 0 0 1 45.48289-48.050366 422.551782 422.551782 0 0 1-34.479279-165.060313c0-247.223614 213.84439-448.229604 476.840223-448.229604s476.840222 200.639646 476.840222 448.229604a422.533362 422.533362 0 0 1-34.479279 165.060313 139.377374 139.377374 0 0 1 45.483914 48.050366z m-47.684022-213.110679c0-227.049133-197.338461-411.549194-440.159812-411.549193S71.879074 147.68483 71.879074 374.733962a386.245901 386.245901 0 0 0 30.810726 150.020782 189.268668 189.268668 0 0 1 156.25681 17.23964c77.459163 39.559994 113.317858 130.624013 83.630723 212.376968a466.560088 466.560088 0 0 0 338.189395 0c-29.688159-81.752955 6.17156-172.816974 83.630723-212.376968a189.268668 189.268668 0 0 1 156.256809-17.23964 386.239761 386.239761 0 0 0 31.545461-150.020782zM530.379603 204.538699v6.602371h-36.680411c0-40.515762-32.844036-73.359798-73.359798-73.359798v-36.68041a110.036116 110.036116 0 0 1 88.765673 46.216601 110.040209 110.040209 0 0 1 92.800569-52.452629v36.68041c-39.656185 0.991584-71.339792 33.326013-71.526033 72.993455zM425.474344 462.398558c-27.143197 46.950312-100.136651 55.753815-162.859181 19.440771s-91.699492-103.804181-64.556295-150.754493c27.143197-46.950312 100.136651-55.753815 162.859182-19.440771s91.699492 103.804181 64.556294 150.754493z m-113.707738-87.664596a22.007223 22.007223 0 0 0-15.561417 37.570687 22.008246 22.008246 0 0 0 37.569664-15.561417c0-12.155854-9.853415-22.00927-22.008247-22.00927z m449.697026 107.105367c-62.72253 36.680411-135.715985 27.509541-162.859182-19.440771s1.833765-114.441449 64.557318-150.754493 135.715985-27.509541 162.859182 19.440771c27.142174 46.950312-1.834788 114.441449-64.557318 150.754493z m-49.151444-107.105367c-12.154831 0-22.008246 9.853415-22.008246 22.008247 0 12.154831 9.853415 22.008246 22.008246 22.008246 12.154831 0 22.008246-9.853415 22.008247-22.008246a22.005176 22.005176 0 0 0-22.008247-22.008247z"  horiz-adv-x="1024" />

    
    <glyph glyph-name="jipiao1" unicode="&#59548;" d="M494.741333 760.32c-9.6 16.64-31.061333 29.013333-50.346666 29.013333h-86.314667c-25.962667 0-43.050667-22.869333-35.882667-47.765333L394.389333 490.666667h-156.224l-79.701333 79.146666a21.333333 21.333333 0 0 1-15.04 6.186667h-86.186667c-26.666667 0-43.093333-23.872-33.664-48.789333L77.653333 384l-54.08-143.210667C14.144 215.850667 30.613333 192 57.237333 192h86.186667a21.333333 21.333333 0 0 1 15.04 6.186667L238.165333 277.333333h156.224l-72.192-250.901333C315.029333 1.493333 332.245333-21.333333 358.08-21.333333h86.336c19.370667 0 40.746667 12.373333 50.389333 29.141333l163.626667 280.106667a21.333333 21.333333 0 0 1-36.842667 21.504L457.898667 29.226667c-2.133333-3.690667-9.386667-7.893333-13.482667-7.893334h-79.296l78.101333 271.424a21.333333 21.333333 0 0 1-20.48 27.242667h-193.365333a21.333333 21.333333 0 0 1-15.04-6.186667L134.634667 234.666667H66.858667l53.546666 141.802666a21.333333 21.333333 0 0 1 0 15.061334L66.88 533.333333h67.776l79.701333-79.146666a21.333333 21.333333 0 0 1 15.04-6.186667h193.344a21.333333 21.333333 0 0 1 20.501334 27.242667L365.141333 746.666667h79.274667c4.032 0 11.392-4.245333 13.418667-7.765334l163.754666-280.32A21.333333 21.333333 0 0 1 640 448h255.914667A63.957333 63.957333 0 0 0 960 384c0-35.285333-28.672-64-63.978667-64H768a21.333333 21.333333 0 0 1 0-42.666667h128.021333A106.709333 106.709333 0 0 1 1002.666667 384c0 58.965333-47.701333 106.666667-106.752 106.666667H652.245333L494.741333 760.32z"  horiz-adv-x="1024" />

    
    <glyph glyph-name="jiantou1" unicode="&#58900;" d="M511.31 226.6a61.19 61.19 0 0 0-43.25 17.79l-237.12 237.2a35 35 0 0 0 49.55 49.55l230.89-230.9 230.9 230.89a35 35 0 1 0 49.55-49.55L554.7 244.46a61.41 61.41 0 0 0-43.39-17.86z"  horiz-adv-x="1024" />

    
    <glyph glyph-name="ziranfengguang" unicode="&#59273;" d="M847.394037 617.0017339999999c48.48283 0 87.908429-39.248006 87.908429-87.37565s-39.425598-87.198058-87.908429-87.198058c-23.442248 0-45.641346 9.057232-62.157475 25.750954-16.516129 16.516129-25.750954 38.360042-25.750954 61.624697 0 47.950052 39.425598 87.198058 87.908429 87.198057m0 278.998266c-19.357614 0-34.985779-15.628165-34.985779-34.808186v-90.394728c0-19.357614 15.628165-34.808186 34.985779-34.808186 19.357614 0 34.985779 15.628165 34.985779 34.808186v90.394728c0.177593 19.180021-15.450572 34.808186-34.985779 34.808186zM605.335071 805.605272c-8.879639 0-17.936871-3.374263-24.86299-10.300381-13.674644-13.674644-13.674644-35.69615 0-49.370795l70.859521-70.504335c6.570933-6.570933 15.450572-10.300382 24.685397-10.300382 9.234825 0 18.114464 3.729448 24.685397 10.300382 13.674644 13.674644 13.674644 35.69615 0 49.370794l-70.859521 70.681929c-6.570933 6.748526-15.628165 10.122789-24.507804 10.122788z m484.295525 0c-9.057232 0-17.936871-3.374263-24.86299-10.300381l-70.859521-70.681929c-13.674644-13.674644-13.674644-35.69615 0-49.370794 6.570933-6.570933 15.450572-10.300382 24.685397-10.300382 9.234825 0 18.114464 3.729448 24.685397 10.300382l70.859521 70.504336c13.674644 13.674644 13.674644 35.69615 0 49.370794-6.570933 7.103711-15.450572 10.477974-24.507804 10.477974z m-242.236559-140.2983c-75.121748 0-136.213666-60.914325-136.213666-135.680888 0-74.766563 61.091918-135.680888 136.213666-135.680888 75.121748 0 136.213666 60.736733 136.213666 135.680888 0.177593 74.766563-61.091918 135.680888-136.213666 135.680888z m332.986472-90.394728h-90.749913c-19.357614 0-34.985779-15.628165-34.985779-34.808186 0-19.357614 15.628165-34.808186 34.985779-34.808186h90.749913c19.357614 0 34.985779 15.628165 34.985779 34.808186 0.177593 19.180021-15.450572 34.808186-34.985779 34.808186z m-575.045438 0h-90.749914c-19.357614 0-34.985779-15.628165-34.985778-34.808186 0-19.357614 15.628165-34.808186 34.985778-34.808186h90.749914c19.357614 0 34.985779 15.628165 34.985778 34.808186s-15.628165 34.808186-34.985778 34.808186z m-143.139785-151.309053c-9.59001 0-18.647242-3.551856-25.218176-10.300381l-420.717308-424.446757c-13.674644-13.674644-13.497052-35.873743 0.355185-49.370795 6.748526-6.748526 15.628165-10.122789 24.685398-10.122788s18.114464 3.551856 25.040582 10.477974l266.744364 269.230662 186.117239-247.031564c6.926119-9.234825 17.404093-14.02983 28.05966-14.02983 7.281304 0 14.740201 2.308706 20.955948 6.926119 15.450572 11.543531 18.647242 33.387444 7.103712 48.838016L382.811311 259.15227200000004l75.476933 76.187305 168.357961-223.411724c5.860562-7.814083 14.740201-12.786681 24.685397-13.852237 1.065557 0 2.131113-0.177593 3.019077-0.177593 8.702046 0 17.2265 3.019077 23.797434 8.879639l143.317377 128.044398 245.43323-270.651404c6.926119-7.63649 16.338536-11.543531 25.928546-11.543531 8.346861 0 16.693722 3.019077 23.442248 9.057232 14.385016 12.964273 15.450572 34.985779 2.486299 49.193201l-268.697884 296.579952c-6.926119 7.63649-16.516129 11.543531-25.928547 11.543531-8.346861 0-16.693722-3.019077-23.442248-8.87964l-140.831078-125.735692-169.778703 225.365245c-6.038155 8.169268-15.450572 13.141866-25.750954 13.852237h-2.131113z m208.849115-29.480402c-9.057232 0-17.936871-3.374263-24.86299-10.300382l-34.275407-34.097815c-13.674644-13.674644-13.674644-35.69615 0-49.370794 6.926119-6.748526 15.805758-10.300382 24.86299-10.300381 9.234825 0 18.114464 3.729448 24.685397 10.300381l34.275407 34.097815c13.674644 13.674644 13.674644 35.69615 0 49.370794-6.748526 6.926119-15.628165 10.300382-24.685397 10.300382z m347.726674 0c-8.879639 0-17.936871-3.374263-24.86299-10.300382-13.674644-13.674644-13.674644-35.69615 0-49.370794l70.859521-70.681929c6.570933-6.570933 15.450572-10.300382 24.685397-10.300381 9.234825 0 18.114464 3.729448 24.685397 10.300381 13.674644 13.674644 13.674644 35.69615 0 49.370795L1043.278879 383.822407c-6.570933 6.926119-15.628165 10.300382-24.507804 10.300382z"  horiz-adv-x="1281" />

    
    <glyph glyph-name="Skiing" unicode="&#58910;" d="M890.88 896C828.928 896 778.24 845.27104 778.24 783.36c0-61.952 50.688-112.64 112.64-112.64 62.01344 0 112.64 50.66752 112.64 112.64C1003.52 845.27104 952.87296 896 890.88 896z m0-40.96C930.75456 855.04 962.56 823.0912 962.56 783.36 962.56 743.54688 930.73408 711.68 890.88 711.68A71.39328 71.39328 0 0 0 819.2 783.36C819.2 823.11168 851.08736 855.04 890.88 855.04zM653.43488 793.6c-10.89536-0.06144-21.58592-1.024-31.98976-2.56-62.44352-9.216-116.61312-44.032-157.45024-79.36-16.54784-14.336-30.1056-28.28288-42.22976-41.59488l-194.56 113.90976a20.48 20.48 0 0 1-11.53024 3.21536 20.48 20.48 0 0 1-8.94976-38.4l188.14976-110.08c-10.32192-13.312-16.95744-23.20384-17.26464-23.69536l-0.65536-0.63488c-33.01376-45.69088-34.65216-94.24896-21.74976-131.85024 12.96384-37.7856 38.0928-65.29024 60.14976-80.62976 37.62176-26.112 79.42144-50.42176 101.76512-67.19488 10.36288-7.7824 13.88544-14.1312 14.72512-17.92 0.8192-3.7888 0.6144-8.56064-6.41024-17.92-16.40448-21.9136-109.6704-138.38336-117.76-148.48L56.95488 341.74976a20.48 20.48 0 0 1-14.06976 2.56 20.48 20.48 0 0 1-5.75488-38.4l768-417.91488a20.48 20.48 0 0 1 1.26976-1.26976s27.36128-11.75552 62.07488-14.09024c34.7136-2.31424 80.77312 6.43072 111.37024 48.00512a20.48 20.48 0 1 1-33.28 23.67488c-20.95104-28.4672-48.9472-33.13664-75.53024-31.35488-25.47712 1.69984-44.4416 10.17856-46.08 10.87488l-1.90464 0.65536-283.52512 154.2144c9.54368 10.752 74.5472 83.68128 140.8 165.13024 39.60832 48.70144 42.96704 96.23552 28.79488 131.21536-14.17216 34.95936-41.82016 57.87648-56.95488 69.75488-9.216 7.22944-39.56736 28.50816-67.85024 48.64l26.89024 18.55488 8.31488-5.12a20.48 20.48 0 0 1 10.87488-3.85024c0.3072-10.46528 1.18784-20.74624 4.48512-30.72 4.23936-12.8 12.96384-21.36064 23.67488-30.06464 10.71104-8.704 23.8592-17.08032 40.32512-26.25536 32.93184-18.3296 78.09024-38.85056 133.12-62.0544 18.5344-7.84384 33.71008-11.61216 48.00512-11.53024 14.27456 0.08192 30.43328 5.3248 37.74464 19.18976 7.33184 13.86496 3.3792 28.8768-3.19488 40.96-6.5536 12.10368-16.5888 23.20384-30.72 34.57024-15.50336 12.4928-49.152 33.11616-81.26464 52.46976-24.3712 14.68416-37.25312 21.97504-46.73536 27.52512 4.096 9.99424 9.05216 21.15584 17.92 47.37024C785.87904 600.18688 798.72 642.048 798.72 676.4544c0 35.47136-18.00192 64.2048-40.32512 82.55488a151.38816 151.38816 0 0 1-71.68 32.01024A208.77312 208.77312 0 0 1 653.43488 793.6z m0-41.59488a170.3936 170.3936 0 0 0 26.89024-1.92512c15.68768-2.4576 36.47488-10.40384 51.83488-23.04 15.36-12.63616 25.6-28.3648 25.6-50.56512 0-23.22432-10.8544-65.08544-22.40512-99.20512-11.55072-34.0992-23.04-60.78464-23.04-60.78464a20.48 20.48 0 0 1 8.33536-26.25536s28.99968-16.67072 60.78464-35.84c31.78496-19.1488 67.584-41.73824 76.16512-48.64 10.42432-8.37632 16.71168-16.44544 19.84512-21.74976-6.10304 0.28672-16.09728 1.76128-30.08512 7.68-54.41536 22.95808-98.24256 43.2128-128.63488 60.17024-15.21664 8.45824-26.8288 16.09728-34.57024 22.38464-7.74144 6.30784-10.38336 11.30496-10.24 10.89536-2.80576 8.47872-4.096 30.06464-3.19488 47.34976 0.88064 17.28512 2.56 30.72 2.56 30.72a20.48 20.48 0 0 1-32.01024 19.84512l-32.62464-22.40512-151.04 88.33024a456.02816 456.02816 0 0 0 33.28 31.98976c43.52 37.66272 100.352 70.90176 162.54976 71.04512zM430.08 617.59488l141.43488-82.55488-34.54976-24.33024a20.48 20.48 0 0 1 0-33.28c42.45504-30.06464 80.34304-57.36448 89.6-64.63488 13.7216-10.77248 35.49184-30.16704 44.78976-53.10464 9.3184-22.95808 10.36288-49.33632-22.38464-89.6a5900.84096 5900.84096 0 0 0-145.92-171.52l-58.88 31.98976c14.66368 18.39104 95.62112 119.6032 113.90976 143.99488 11.50976 15.36 17.85856 33.21856 14.09024 50.56512-3.7888 17.34656-15.93344 31.1296-30.72 42.25024-26.4192 19.80416-67.3792 43.06944-103.05536 67.82976-14.17216 9.85088-35.328 33.21856-44.78976 60.80512-9.48224 27.58656-9.68704 58.71616 16.62976 94.72a20.48 20.48 0 0 1 0.65536 0.63488s6.9632 10.89536 19.18976 26.23488z"  horiz-adv-x="1024" />

    
    <glyph glyph-name="chujingyou1" unicode="&#58882;" d="M604.247472 306.57255999999995c2.209318-12.068873 3.699252-24.353664 4.256954-36.919864l-112.460328-0.340761c-0.901533 21.303188-3.201925 41.395806-6.374174 60.180638l-35.953863 20.650319c6.126534-27.057239 9.641591-54.05308 11.010775-80.922031l-125.370359-0.407276L339.356476 396.671601c27.64871-0.779759 54.954613-4.075829 82.045621-9.890254l15.646352 18.285458 7.928576 63.915705c-9.549493 19.810185-19.034519 36.295648-27.027563 49.045019 10.853186-3.452635 21.36561-7.619538 31.567973-12.345166l6.001691 48.610114c-37.288255 15.176654-78.001515 23.63735-120.671337 23.63735-155.103544 0-284.8557-110.597911-314.558186-257.082146-0.935302-2.208295-1.36816-4.574179-1.243317-6.938016-3.326768-18.503423-5.163603-37.504172-5.163603-56.94392 0-176.968527 143.966902-320.934406 320.965106-320.934406 176.998203 0 320.968176 143.966902 320.968176 320.934406 0 32.719192-4.948709 64.284095-14.089903 94.01728L604.247472 306.57255999999995 604.247472 306.57255999999995zM339.356476 530.811694c13.403265-0.218988 22.330588-1.060145 33.059953-2.550079 4.075829-5.16258 35.706223-46.52871 60.929698-112.61894-32.873712 7.40362-62.667272 11.008728-93.989651 11.849886L339.356476 530.811694 339.356476 530.811694zM218.061946 504.748085c-14.369266-25.162076-31.103392-59.498092-44.443212-101.329826-36.264948-11.722996-66.868967-25.90602-90.756003-38.937824 26.40744 61.610196 74.766844 111.652939 135.200238 140.236951L218.062969 504.748085 218.061946 504.748085zM68.090283 319.197088c20.310581 13.125949 53.05945 31.816636 95.265714 47.492664-6.938016-28.894074-12.101619-62.014402-13.283538-98.466616l-88.917122-0.281409C61.870628 285.515988 64.233442 302.618505 68.090283 319.197088L68.090283 319.197088zM61.684386 236.62344099999996l88.388073 0.280386c0.935302-29.544897 4.668323-60.930721 12.163017-93.737918-41.830711 15.829524-73.864288 34.362622-93.054349 46.837748-3.795443 15.081487-6.282077 30.664394-7.463995 46.648436L61.684386 236.62344099999996 61.684386 236.62344099999996zM85.414857 143.84845499999994c22.827915-12.378935 52.060703-25.972535 86.649476-37.385469 9.329483-30.287817 22.081924-61.642942 38.873356-93.737918C155.67199 40.873152000000005 111.199103 87.21254999999996 85.414857 143.84845499999994L85.414857 143.84845499999994zM308.069913-15.732053999999948c-17.916045 1.678222-34.522258 5.069459-51.070142 9.953699-20.493753 33.590026-37.103036 67.518766-49.38885 101.760638 29.268604-7.367805 64.661695-13.060457 100.457969-14.554484L308.068889-15.732053999999948 308.069913-15.732053999999948zM308.069913 112.40737200000001c-31.31931 1.460258-62.48103 6.185886-94.083795 14.272052-5.939269 1.493004-11.755742 3.143597-17.444301 4.821819-9.582239 34.926464-14.868639 70.104661-15.957437 105.527428l127.485533 0.403183 0-124.993782L308.069913 112.40737200000001 308.069913 112.40737200000001zM308.069913 268.721487l-127.393435-0.403183c1.308809 32.904411 6.40692 65.99404 14.990413 99.178837 0.964978 3.668553 1.867534 7.27673 2.861164 10.856255 3.579525 1.02433 7.092535 2.02103 10.731412 2.983961 33.184797 8.708336 67.491137 13.748119 98.810447 15.118326L308.069913 268.721487 308.069913 268.721487zM308.069913 427.400462c-35.796274-1.309832-69.202105-6.593162-98.094132-13.592576 19.501146 52.965306 43.541679 91.095741 55.732325 108.451014 13.777795 3.577478 28.924773 6.03239 42.360783 7.432273l0-102.260012L308.068889 427.400462 308.069913 427.400462zM339.356476 237.49529800000005l125.836987 0.405229c-0.74599-36.791951-6.221702-73.337285-16.108886-109.602234-36.234249-10.015098-73.961502-15.45704-109.757776-16.295128L339.3268 237.52804400000002 339.356476 237.49529800000005 339.356476 237.49529800000005zM339.356476-16.88429599999995l0 98.066503c31.321356 0.774643 64.413032 4.53734 99.057063 12.562107-12.625552-35.548634-29.857005-70.78823-51.315736-105.620549-15.424294-3.015683-29.854958-4.725628-47.771003-5.037736L339.356476-16.88429599999995 339.356476-16.88429599999995zM430.984337 0.44027700000003733c19.215644 35.331693 33.401738 69.790506 43.571355 103.006002 36.668131 11.353582 74.829266 27.649733 113.986077 50.16861C559.740816 83.171514 502.421342 27.314345000000003 430.984337 0.44027700000003733L430.984337 0.44027700000003733zM602.596879 199.02410199999997c-38.998199-25.53456-78.532611-45.471634-118.52751-59.775408 7.930623 34.674731 11.632945 67.765383 12.316513 98.741885l111.747083 0.37453c-0.901533-13.405311-2.736321-26.529213-5.505387-39.341007L602.596879 199.02410199999997 602.596879 199.02410199999997zM960.171788 489.539708l-107.021455-8.800433L717.892789 605.8886l126.393665 93.802386 12.440333-10.481725 15.429411 18.257829-53.962006 65.37494-0.313132-0.373507-1.52575 1.928932-205.019397-69.916373-86.924745 80.429821c-17.510816 17.290805-50.665936 34.456766-74.083276 38.315654l-55.547107 9.203616c-25.347295 4.198625-41.178865-8.67559-40.340777-30.010501 0.189312-4.511757 1.121544-9.393951 2.834558-14.589276 9.950629-29.698392 18.036795-53.804417 18.036795-53.804417 7.557116-22.485107 29.858028-52.343135 49.855478-66.681702l90.068342-69.26248-25.440415-205.362204 5.100158-2.830465-0.713244-0.86981 73.523527-42.23594 15.427364 18.287505-14.184047 11.974729 61.924351 132.086317 146.610102-112.772436 8.367575-99.028411 53.806463-45.407166 43.75862 127.113049 126.239146 68.700685-49.450249 41.73759L960.171788 489.539708 960.171788 489.539708z"  horiz-adv-x="1024" />

    
    <glyph glyph-name="saoyisao1" unicode="&#58898;" d="M837.818182-128H186.181818a186.181818 186.181818 0 0 0-186.181818 186.181818v232.727273h93.090909v-232.727273a93.090909 93.090909 0 0 1 93.090909-93.090909h651.636364a93.090909 93.090909 0 0 1 93.090909 93.090909v232.727273h93.090909v-232.727273a186.181818 186.181818 0 0 0-186.181818-186.181818z m139.636363 512H46.545455a46.545455 46.545455 0 0 0 0 93.090909h930.90909a46.545455 46.545455 0 0 0 0-93.090909z m-46.545454 325.818182a93.090909 93.090909 0 0 1-93.090909 93.090909H186.181818a93.090909 93.090909 0 0 1-93.090909-93.090909v-139.636364H0V709.818182a186.181818 186.181818 0 0 0 186.181818 186.181818h651.636364a186.181818 186.181818 0 0 0 186.181818-186.181818v-139.636364h-93.090909V709.818182z"  horiz-adv-x="1024" />

    
    <glyph glyph-name="xiangji" unicode="&#58962;" d="M855.9773116491851 641.4281823573333h-66.576252928c-26.630501413925924 0-66.57625414162963 19.97287636385185-82.1107134008889 37.72654356859259l-44.384169832296294 51.041794882370375c-24.411293468444445 26.630501413925924-55.48021198696296 42.164960673185185-90.98754639644444 42.164960673185185h-119.8372581831111c-39.9457527277037 0-66.57625414162963-13.315251313777777-95.42596350103702-44.384169832296294l-44.384169832296294-51.04179366874074c-13.315251313777777-15.53445925925926-53.26100282785185-35.50733562311111-79.89150424177778-35.50733562311111h-64.35704498251852c-44.384169832296294 0-82.1107134008889-33.288126464-82.1107134008889-75.45308835081481v-479.3490278779259c0-39.9457527277037 33.288126464-73.2338791917037 75.45308713718518-75.45308835081481h692.3930416165927c44.384169832296294 0 82.1107134008889 35.50733562311111 82.1107134008889 75.45308835081481V565.9750940065186c0 42.164960673185185-35.50733562311111 75.45308835081481-79.8915054554074 75.45308835081481z m35.50733562311111-557.0213253878518c0-17.75366720474074-15.53445925925926-31.06891851851852-37.72654356859259-31.06891851851852H163.58427124622227c-19.97287636385185 0-33.288126464 15.53445925925926-33.288127677629625 31.06891851851852V565.9750940065186c0 17.75366720474074 15.53445925925926 31.06891851851852 37.72654478222222 31.06891851851852h64.35704498251852c42.164960673185185 0 93.20675555555555 26.630501413925924 113.17963191940738 51.041794882370375l44.38416861866666 51.041794882370375c19.97287636385185 22.19208430933333 35.50733562311111 28.849710573037036 62.13783703703704 28.84970935940741h119.8372581831111c22.19208430933333 0 42.164960673185185-8.876834209185184 57.69941993244444-26.630501413925924l44.38416861866666-51.041794882370375c22.19208430933333-24.411293468444445 73.2338791917037-51.041794882370375 115.3988410785185-51.04179366874074h66.576252928c19.97287636385185 0 37.72654356859259-13.315251313777777 37.72654478222222-31.06891851851852v-483.78744619614815zM512 512.7140911786666c-97.64517266014815 0-177.53667690192594-79.89150424177778-177.53667690192594-177.53667690192594s79.89150424177778-177.53667690192594 177.53667690192594-177.53667811555553 177.53667690192594 79.89150424177778 177.53667690192594 177.53667811555553-79.89150424177778 177.53667690192594-177.53667690192594 177.53667690192594z m0-310.6891851851852c-73.2338791917037 0-133.15250828325927 59.91862909155555-133.15250828325927 133.15250828325927s59.91862909155555 133.15250828325927 133.15250828325927 133.15250706962962 133.15250828325927-59.91862909155555 133.15250828325927-133.15250706962962-59.91862909155555-133.15250828325927-133.15250828325927-133.15250828325927z"  horiz-adv-x="1024" />

    
    <glyph glyph-name="dangdiwanle-yiriyou" unicode="&#58904;" d="M905.216 349.184c-4.096 0-7.68 1.024-11.264 3.584-9.216 6.144-11.776 18.944-5.632 28.16 24.064 36.352 36.864 79.36 36.864 123.904 0 121.344-96.256 219.648-215.04 219.648-99.84 0-185.856-69.12-208.896-168.448-2.56-11.264-13.824-17.92-24.576-15.36-11.264 2.56-17.92 13.824-15.36 24.576C488.96 683.008 590.848 765.44 710.144 765.44c141.312 0 256-116.736 256-260.608 0-52.736-15.36-103.424-44.032-146.432-3.584-6.144-10.24-9.216-16.896-9.216zM903.68 270.336l-41.472 57.344-52.224 70.656L744.96 486.4c-6.656 11.264-19.456 15.36-30.208 15.36-10.752 0-24.064-4.608-32.768-13.312-41.472-48.64-89.088-103.936-119.296-134.656-26.112 33.28-71.68 94.72-143.36 194.048l-54.272 72.704c-8.704 11.264-15.36 22.016-24.064 33.28l-10.24 72.704L48.64 267.264c-10.752-19.968-6.656-44.032 12.8-57.344 4.096-4.608 7.168 12.8 13.312 10.24H867.84c8.704 0 19.968-14.848 26.624-8.192 17.92 14.336 22.016 40.448 9.216 58.368zM348.16 705.024l0.512-0.512 53.76-74.24 0.512-0.512 0.512-0.512c3.584-4.608 6.656-9.216 10.24-14.336 4.096-5.632 8.192-11.776 13.312-18.432l53.76-72.192c72.192-99.84 118.272-161.792 144.896-195.584l28.672-36.352 32.768 32.768c25.088 25.6 64.512 69.632 119.808 134.656 0.512 0.512 1.024 0.512 2.048 0.512l64.512-87.04 52.224-70.656 40.96-56.832c0-0.512 0-1.024-0.512-1.024l-0.512-0.512H66.048c-0.512 0.512-0.512 1.024 0 2.56l282.112 458.24m-2.048 41.984c-13.312 0-26.112-8.704-32.768-19.968L30.208 267.776c-10.752-19.968-6.656-44.032 13.312-57.344 4.608-4.608 10.752-4.608 17.408-6.656h906.24c8.704 0 17.408 2.048 24.064 8.704 17.408 13.312 22.016 39.936 8.704 57.344l-41.472 57.344-52.224 70.656-65.536 88.064c-6.656 11.264-19.456 15.36-30.72 15.36-10.752 0-24.064-4.608-32.768-13.312C735.744 439.296 688.128 384 657.408 353.28c-26.112 33.28-71.68 94.72-143.872 194.048l-54.272 72.704c-8.704 11.264-15.36 22.016-24.064 33.28l-54.272 75.264c-8.704 11.776-21.504 18.432-34.816 18.432z m492.544-610.816H92.672c-9.216 0-16.896-7.68-16.896-16.896s7.68-16.896 16.896-16.896h745.984c9.216 0 16.896 7.68 16.896 16.896s-7.68 16.896-16.896 16.896z m-67.584-101.888H177.664c-9.216 0-16.896-7.68-16.896-16.896s7.68-16.896 16.896-16.896h593.408c9.216 0 16.896 7.68 16.896 16.896 0 9.728-7.68 16.896-16.896 16.896z m67.584 0c-9.216 0-16.896-7.68-16.896-16.896s7.68-16.896 16.896-16.896 16.896 7.68 16.896 16.896c0 9.728-7.68 16.896-16.896 16.896z"  horiz-adv-x="1032" />

    
    <glyph glyph-name="ARsaoyisao" unicode="&#59632;" d="M490.666667-29.482667V64h42.666666v-93.482667l329.536 164.778667a21.333333 21.333333 0 0 1 11.797334 19.072V320h42.666666v-165.632a64 64 0 0 0-35.370666-57.237333l-341.333334-170.666667a64 64 0 0 0-57.258666 0l-341.333334 170.666667A64 64 0 0 0 106.666667 154.368V320h42.666666v-165.632a21.333333 21.333333 0 0 1 11.797334-19.072L490.666667-29.482667z m42.666666 826.965334V704h-42.666666V797.482667L161.130667 632.704a21.333333 21.333333 0 0 1-11.797334-19.072V448H106.666667v165.632a64 64 0 0 0 35.370666 57.237333l341.333334 170.666667a64 64 0 0 0 57.258666 0l341.333334-170.666667A64 64 0 0 0 917.333333 613.632V448h-42.666666v165.632a21.333333 21.333333 0 0 1-11.797334 19.072L533.333333 797.482667zM394.538667 532.266667h18.154666L546.346667 234.666667h-49.322667l-31.338667 72.533333h-127.872l-33.28-72.533333H256l138.538667 297.6z m52.778666-182.698667l-44.309333 101.546667-46.421333-101.546667h90.730666z m207.722667 12.373333L747.52 234.666667h-55.125333l-85.290667 122.24h-8.128V234.666667h-45.077333V533.333333h52.8c39.466667 0 67.968-7.424 85.504-22.250666 19.349333-16.490667 29.013333-38.293333 29.013333-65.386667 0-21.12-6.058667-39.317333-18.176-54.549333-12.117333-15.210667-28.117333-24.96-47.978667-29.205334z m-56.106667 34.24h14.336c42.666667 0 64.021333 16.32 64.021334 48.938667 0 30.570667-20.757333 45.866667-62.293334 45.866667h-16.042666v-94.805334z"  horiz-adv-x="1024" />

    
    <glyph glyph-name="sheyingyuluxiang" unicode="&#58901;" d="M861.5 114.28125H161.28125c-38.53125 0-69.84375 31.21875-69.84375 69.84375V596.90625c0 31.59375 25.59375 57.09375 57.09375 57.09375l146.4375 0.375c4.78125 0 9.09375 2.71875 11.25 6.9375l46.59375 91.125c6.1875 12 18.46875 19.5 31.96875 19.5l255-0.09375c13.03125 0 24.9375-7.21875 30.9375-18.75l48.09375-91.96875c2.15625-4.125 6.46875-6.75 11.15625-6.84375l144.09375-0.375c31.59375 0 57.09375-25.59375 57.09375-57.09375v-412.875c0.1875-38.34375-31.125-69.65625-69.65625-69.65625zM518.375 192.75c-54.75 0-106.125 21.28125-144.84375 60s-60 90.09375-60 144.84375c0 54.75 21.28125 106.125 60 144.84375s90.09375 60 144.84375 60c54.75 0 106.125-21.28125 144.84375-60s60-90.09375 60-144.84375c0-54.75-21.28125-106.125-60-144.84375-38.625-38.71875-90.09375-60-144.84375-60z m0 392.15625c-103.3125 0-187.3125-84-187.3125-187.3125 0-103.3125 84-187.3125 187.3125-187.3125 103.3125 0 187.3125 84 187.3125 187.3125 0 103.3125-84 187.3125-187.3125 187.3125zM752.09375 564m-20.4375 0a20.4375 20.4375 0 1 1 40.875 0 20.4375 20.4375 0 1 1-40.875 0ZM254.1875 676.6875h-58.875c-9.5625 0-17.34375 7.78125-17.34375 17.34375s7.78125 17.34375 17.34375 17.34375H254.1875c9.5625 0 17.34375-7.78125 17.34375-17.34375s-7.78125-17.34375-17.34375-17.34375z"  horiz-adv-x="1024" />

    
    <glyph glyph-name="shanchuan" unicode="&#58925;" d="M512 384m-435.05 0a435.05 435.05 0 1 1 870.1 0 435.05 435.05 0 1 1-870.1 0ZM512-64C265-64 64 137 64 384S265 832 512 832s448-201 448-448-201-448-448-448z m0 870.1C279.25 806.1 89.9 616.75 89.9 384S279.25-38.1 512-38.1 934.1 151.25 934.1 384 744.75 806.1 512 806.1zM159.82 239c1.78 3.74 5.12 6.49 8.47 8.93 1.74 1.14 3.57 2.13 5.38 3.2 1.87 0.91 3.79 1.71 5.7 2.58a112.91 112.91 0 0 0 11.88 3.88c4 0.85 8.1 2.06 12.2 2.62 16.42 3 33.05 3.24 49.6 3.24 33.09-0.81 66-4.68 98.42-10.43 32.38-5.44 64.41-12.1 96.51-18.23 32-6.3 63.93-12.88 95.73-16.48a394.15 394.15 0 0 1 47.63-2.67 421 421 0 0 1 47.66 3.52c32 3.84 63.84 10.32 95.25 17.84q47.11 11.85 93.24 28.11c30.8 10.61 61.12 22.7 91.07 36-27.83-17.37-57.29-32.08-87.34-45.46a810.14 810.14 0 0 0-92.71-34.24l-23.87-6.74c-8-1.95-16.08-3.95-24.15-5.76-16.13-3.47-32.34-6.81-48.83-9.21-16.43-2.66-33.23-3.78-50-4.34a407 407 0 0 0-50.29 2.34C508.2 201.89 476 208.65 444 215.62l-95.66 21.58-23.82 5.06-23.92 4.43c-16 2.85-32 5.1-48.11 6.64s-32.29 2.42-48.35 1.2c-4-0.12-8-0.87-12-1.28a118.23 118.23 0 0 1-11.78-2.5L174.6 249c-1.82-0.8-3.72-1.52-5.52-2.41-3.48-1.94-7.08-4.14-9.26-7.59zM176.48 317.64a715.22 715.22 0 0 0 80.29 124.05c15.61 19.32 32.72 37.61 52.67 53.72 10 8 21.07 15.17 33.94 20.26a65.6 65.6 0 0 0 21.1 4.63 45.4 45.4 0 0 0 22.8-4.77 39.06 39.06 0 0 0 4.68-2.72l4.3-2.74c2.67-2 5.44-3.95 8-6.07a159.43 159.43 0 0 0 14.3-13.43 269 269 0 0 0 24-29.55c14.29-20.56 27.11-41.51 39.83-62.3 12.95-20.59 25.95-41 41.67-59.15 15.51-18.14 34.33-34 57.89-41.72-12.23 1.55-24.17 6-35.1 12.13s-20.89 14-30.11 22.53c-18.23 17.29-33.51 37.16-47.8 57.24-14.48 20-27.58 40.65-42.2 59.67-7.26 9.52-14.63 18.82-22.74 27.1a139.18 139.18 0 0 1-12.62 11.55c-2.18 1.78-4.47 3.31-6.7 5l-3.48 2.14a29.56 29.56 0 0 1-3.26 1.88c-7.48 4.14-17.36 3.4-27.38-0.32s-19.81-10-29.2-16.87c-18.9-13.85-35.83-31.19-52.4-48.74-32.74-35.73-62.86-74.33-92.48-113.52zM547.32 329.74c2.75 20 8 39.68 14.75 59 7 19.14 15.65 38 28.69 55a89.64 89.64 0 0 0 24.17 22.48c9.71 6.09 22.1 9.89 34.34 8.77a61.93 61.93 0 0 0 17.38-4.13c5.6-2.17 10.08-4.83 14.84-7.35a160.31 160.31 0 0 0 25.93-18.67c32.08-28.22 52-64.4 76.35-94.7 12.26-15.11 25.88-29 42.61-38.62A124 124 0 0 1 853 299.77a184.16 184.16 0 0 1 29.3-5.76 137.12 137.12 0 0 0-30.48 0.33 118.9 118.9 0 0 0-29.91 8.36c-19.31 8.3-36.07 21.91-50.05 37-28.31 30.1-49 64.9-78 89.59a174.76 174.76 0 0 1-22.72 16.62 119.36 119.36 0 0 1-12 6.23 42 42 0 0 1-11.73 3 38.38 38.38 0 0 1-23.24-4.92c-7.52-4.06-14.37-10.27-20.73-17.14a164.76 164.76 0 0 1-17.18-23 273.8 273.8 0 0 1-14.56-25.58c-9.16-17.57-16.99-35.99-24.38-54.76zM447.63 449.62a113.83 113.83 0 0 0 25.72 33.87 78.9 78.9 0 0 0 18.3 12.36 46.82 46.82 0 0 0 22.77 4.34c15.81-1.94 29-10.69 38.68-21.48 4.92-5.33 9-11.17 13.14-16.61s8.32-11 15.39-12.48a17.33 17.33 0 0 0-10.49 2.44 55.19 55.19 0 0 0-8.64 6.59c-5.24 4.85-10 9.85-15.08 14.31s-10.32 8.4-16.11 11.23a33.78 33.78 0 0 1-4.35 2 35.69 35.69 0 0 1-4.47 1.71l-4.6 1.36-4.4 0.57c-11.91 1.21-24.22-5-35.1-12.67-10.91-7.87-21.04-17.36-30.76-27.54z"  horiz-adv-x="1024" />

    
    <glyph glyph-name="jipiao2" unicode="&#59029;" d="M513.877333 508.074667a17.066667 17.066667 0 0 1-13.141333 12.117333l-294.570667 62.634667a28.501333 28.501333 0 0 1-22.016-4.096 29.013333 29.013333 0 0 1-13.482666-18.432l-20.309334-99.157334a17.066667 17.066667 0 0 1 17.066667-21.333333h283.989333a17.066667 17.066667 0 0 1 12.458667 5.12l45.568 45.738667a17.066667 17.066667 0 0 1 4.437333 17.408zM826.88 474.965333H251.904a17.066667 17.066667 0 0 1-17.066667-17.066666v-375.466667a17.066667 17.066667 0 0 1 17.066667-17.066667h574.976a41.130667 41.130667 0 0 1 40.96 41.130667V434.005333a40.96 40.96 0 0 1-40.96 40.96zM867.84 105.472V434.005333a41.472 41.472 0 0 1-6.144 21.333334c-41.130667-76.288-96.597333-160.426667-161.450667-211.626667-141.824-111.445333-448.341333-66.048-448.341333-66.048l-17.066667-23.893333v-71.68a17.066667 17.066667 0 0 1 17.066667-17.066667h574.976a41.130667 41.130667 0 0 1 40.96 40.448zM85.333333 332.288l46.933334-62.634667L85.333333 207.189333l46.933334-62.634666L85.333333 82.090667h166.570667V457.386667H85.333333l46.933334-62.464L85.333333 332.288zM251.904 82.090667v91.136a352.426667 352.426667 0 0 0-158.890667 44.202666l-7.68-10.24L132.266667 145.066667 85.333333 82.090667zM676.010667 274.090667l-149.333334 149.333333 24.917334 24.917333 107.861333-41.472 41.472-107.861333-24.917333-24.917333zM597.333333 328.533333a13.653333 13.653333 0 0 0-17.066666 17.066667 205.994667 205.994667 0 0 0 53.930666 95.402667L851.456 657.066667A57.856 57.856 0 0 0 887.466667 674.133333a35.157333 35.157333 0 0 0 38.058666-38.229333v-1.194667a57.514667 57.514667 0 0 0-17.066666-35.84L693.077333 382.464A204.8 204.8 0 0 0 597.333333 328.533333zM900.778667 672.256a38.058667 38.058667 0 0 0 1.194666-13.994667V657.066667a64.341333 64.341333 0 0 0-18.432-37.546667L654.165333 390.485333A228.693333 228.693333 0 0 0 580.266667 341.162667a13.824 13.824 0 0 1 17.066666-12.629334 204.8 204.8 0 0 1 95.232 53.930667l216.405334 215.893333a57.514667 57.514667 0 0 1 17.066666 35.84v1.194667a35.328 35.328 0 0 1-25.258666 36.864zM900.096 280.576l-135.168 173.738667 86.869333 86.869333L938.666667 319.146667l-38.570667-38.570667zM533.333333 647.338667l173.738667-135.168 86.869333 86.869333-222.037333 86.869333-38.570667-38.570666zM850.261333 220.842667a17.066667 17.066667 0 0 1-17.066666-17.066667v-97.792a5.973333 5.973333 0 0 0-5.973334-5.802667H269.482667v17.066667a17.066667 17.066667 0 1 1-35.157334 0v-17.066667H120.490667l25.770666 34.133334a17.066667 17.066667 0 0 1 0 21.162666l-38.912 51.2 38.912 51.2a17.066667 17.066667 0 0 1 0 20.992L107.349333 332.8l38.912 51.2a17.066667 17.066667 0 0 1 0 20.992l-25.770666 34.133333h113.834666v-17.066666a17.066667 17.066667 0 1 1 35.157334 0v17.066666h158.890666a17.066667 17.066667 0 0 1 17.066667 17.066667 17.066667 17.066667 0 0 1-17.066667 17.066667H192.682667l15.36 72.192 290.133333-61.610667a17.066667 17.066667 0 0 1 7.338667 34.133333l-295.253334 62.805334a29.354667 29.354667 0 0 1-34.133333-22.528l-18.090667-85.333334H85.333333a17.066667 17.066667 0 0 1-15.701333-9.728 17.066667 17.066667 0 0 1 1.706667-18.432l38.912-51.2-38.912-51.2a17.066667 17.066667 0 0 1 0-21.162666l38.912-51.541334-38.912-51.2a17.066667 17.066667 0 0 1 0-21.162666L110.250667 145.066667l-38.912-51.2a17.066667 17.066667 0 0 1-1.706667-18.261334 17.066667 17.066667 0 0 1 15.701333-9.898666h741.376a41.130667 41.130667 0 0 1 41.130667 41.130666v96.426667a17.066667 17.066667 0 0 1-17.578667 17.578667zM251.904 256.853333a17.066667 17.066667 0 0 1-17.066667-17.066666v-61.098667a17.066667 17.066667 0 0 1 35.157334 0v60.586667a17.066667 17.066667 0 0 1-18.090667 17.578666zM269.482667 361.301333a17.066667 17.066667 0 0 1-35.157334 0v-61.098666a17.066667 17.066667 0 0 1 35.157334 0zM367.274667 348.330667h72.362666a17.066667 17.066667 0 0 1 0 35.157333h-72.362666a17.066667 17.066667 0 1 1 0-35.157333zM613.205333 241.322667a17.066667 17.066667 0 0 1-17.066666 17.066666H367.274667a17.066667 17.066667 0 1 1 0-35.157333H595.626667a17.066667 17.066667 0 0 1 17.578666 18.090667zM367.274667 191.146667a17.066667 17.066667 0 1 1 0-35.157334h170.666666a17.066667 17.066667 0 0 1 0 35.157334zM955.733333 325.632L872.448 537.6 921.6 585.898667a76.629333 76.629333 0 0 1 22.016 47.786666 51.2 51.2 0 0 1-15.018667 41.984 52.906667 52.906667 0 0 1-42.154666 15.530667 76.970667 76.970667 0 0 1-47.445334-22.016l-49.493333-49.493333-211.114667 82.602666a17.066667 17.066667 0 0 1-18.944-3.925333l-38.570666-38.570667a17.066667 17.066667 0 0 1-5.12-13.482666 18.090667 18.090667 0 0 1 5.12-11.434667 6.656 6.656 0 0 1 1.706666-1.365333l42.154667-32.768-5.290667-5.290667a17.066667 17.066667 0 0 1 24.917334-24.917333l8.362666 8.362666 29.866667-23.210666-5.461333-5.461334a17.066667 17.066667 0 0 1 24.917333-24.917333l8.533333 8.533333 29.866667-23.210666L622.762667 452.266667l-9.045334-9.728-55.808 21.504a17.066667 17.066667 0 0 1-18.773333-4.096L514.389333 435.2a17.066667 17.066667 0 0 1 0-24.917333l52.394667-52.394667c-0.853333-3.072-1.877333-6.144-2.56-9.216a31.232 31.232 0 0 1 37.888-37.888l9.045333 2.56 52.565334-52.394667a17.066667 17.066667 0 0 1 24.746666 0l24.917334 24.917334a17.066667 17.066667 0 0 1 3.925333 18.773333l-21.333333 55.808c3.242667 2.901333 6.485333 5.802667 9.557333 8.874667l57.685333 57.856 23.381334-30.037334-8.533334-8.362666a17.066667 17.066667 0 0 1 0-24.917334 17.066667 17.066667 0 0 1 24.917334 0l5.290666 5.290667 23.381334-29.866667-8.362667-8.362666a17.066667 17.066667 0 0 1 24.917333-24.917334l5.12 5.290667 32.768-42.154667 1.536-1.706666a18.602667 18.602667 0 0 1 11.264-5.12 17.066667 17.066667 0 0 1 13.653334 5.12l38.570666 38.741333a17.066667 17.066667 0 0 1 4.608 19.456zM580.266667 394.24l-29.184 29.184 4.437333 4.266667 35.84-13.653334A225.28 225.28 0 0 1 580.266667 394.24z m-20.48 254.805333l17.066666 17.066667 186.197334-72.874667-56.832-56.832zM676.010667 298.666667l-29.013334 29.013333c6.656 3.413333 13.312 7.168 19.626667 11.093333l13.824-35.84z m4.608 95.914666a188.928 188.928 0 0 0-80.554667-47.616A187.733333 187.733333 0 0 0 648.533333 428.032l215.381334 216.234667a41.301333 41.301333 0 0 0 25.6 11.946666 17.066667 17.066667 0 0 0 13.824-5.12 17.066667 17.066667 0 0 0 4.778666-15.018666 39.765333 39.765333 0 0 0-11.776-25.088z m221.013333-87.381333L788.309333 452.266667l57.002667 56.832 72.704-186.197334z"  horiz-adv-x="1024" />

    
    <glyph glyph-name="changge" unicode="&#58926;" d="M573.44 332.8c-3.396267-5.12-5.12-11.946667-5.12-18.773333 0-6.826667 1.723733-11.946667 5.12-18.7904 5.137067-3.413333 11.946667-6.8096 20.48-6.8096 5.12 0 11.946667 3.396267 17.066667 6.8096 5.12 6.826667 8.533333 11.946667 8.533333 18.7904 0 6.8096-3.413333 13.653333-8.533333 18.773333s-11.946667 6.826667-17.066667 6.826667c-8.533333 0-15.36-1.706667-20.48-6.826667zM568.32 377.173333c0 8.533333-3.413333 15.36-8.533333 20.48-6.8096 6.826667-15.342933 8.533333-22.186667 8.533334s-15.36-1.706667-20.48-8.533334c-6.826667-5.12-8.533333-11.946667-8.533333-20.48 0-6.826667 1.706667-15.36 8.533333-22.186666 5.12-5.12 13.653333-8.533333 20.48-8.533334s15.36 3.413333 22.186667 8.533334c5.12 6.826667 8.533333 15.36 8.533333 22.186666zM855.04-73.386667a16.9472 16.9472 0 0 0-10.683733 3.771734l-477.866667 384a17.083733 17.083733 0 0 0-1.4848 25.258666l184.32 187.733334a17.066667 17.066667 0 0 0 25.309867-1.058134l395.9296-476.16a17.083733 17.083733 0 0 0-1.467734-23.3984l-102.4-95.573333a17.1008 17.1008 0 0 0-11.656533-4.573867zM402.551467 329.181867L854.186667-33.757867l79.803733 74.478934L560.452267 489.984l-157.9008-160.802133zM293.546667 320.853333c-0.7168 0-1.450667 0.0512-2.184534 0.136534-58.368 7.543467-109.6704 32.9216-148.394666 73.403733C94.6176 442.7264 69.973333 501.9136 69.973333 570.026667c0 69.546667 23.893333 128.119467 73.045334 179.114666C190.737067 796.8256 250.487467 820.906667 320.853333 820.906667c68.266667 0 129.0752-24.746667 175.906134-71.560534 41.0624-44.782933 64.256-94.190933 71.424-151.6032 0.648533-5.2224-1.143467-10.461867-4.864-14.1824l-257.706667-257.706666a17.015467 17.015467 0 0 0-12.066133-5.000534z m27.306666 465.92c-61.8496 0-112.042667-20.138667-153.480533-61.559466C124.8768 681.130667 104.106667 630.306133 104.106667 570.026667c0-59.562667 20.6848-109.192533 63.266133-151.773867 32.170667-33.6384 72.4992-54.459733 120.1664-62.225067L533.162667 601.668267c-7.389867 46.6944-27.409067 87.364267-61.064534 124.074666C431.7696 766.071467 380.706133 786.773333 320.853333 786.773333z"  horiz-adv-x="1024" />

    
    <glyph glyph-name="fenxiang" unicode="&#58889;" d="M870.7 409.3c-14 0-25.3-11.3-25.3-25.3v-333.4H178.6V717.4H512c14 0 25.3 11.3 25.3 25.3S526 768 512 768H167.8c-21.9 0-39.8-17.8-39.8-39.8v-688.4c0-21.9 17.8-39.8 39.8-39.8h688.4c21.9 0 39.8 17.8 39.8 39.8V384c0 14-11.3 25.3-25.3 25.3zM856.2 768H600.1c-14 0-25.3-11.3-25.3-25.3s11.3-25.3 25.3-25.3h209.5l-444-444c-9.9-9.9-9.9-25.9 0-35.8 4.9-4.9 11.4-7.4 17.9-7.4 6.5 0 13 2.5 17.9 7.4l444 444v-209.5c0-14 11.3-25.3 25.3-25.3s25.3 11.3 25.3 25.3V728.2c0 22-17.8 39.8-39.8 39.8z"  horiz-adv-x="1024" />

    
    <glyph glyph-name="luyin" unicode="&#58890;" d="M512 243.6c65 0 117.8 52.8 117.8 117.8V650.2c0 65-52.8 117.8-117.8 117.8s-117.8-52.8-117.8-117.8v-288.8c0-65 52.8-117.8 117.8-117.8z m0 473.8c37 0 67.2-30.1 67.2-67.2v-288.8c0-37-30.1-67.2-67.2-67.2s-67.2 30.1-67.2 67.2v93.8h54.3c14 0 25.3 11.3 25.3 25.3s-11.3 25.3-25.3 25.3h-54.3v69.5h54.3c14 0 25.3 11.3 25.3 25.3s-11.3 25.3-25.3 25.3h-54.3v24.3c0 37 30.2 67.2 67.2 67.2zM651.6 50.6H537.3V156.1c111.2 12.6 198 107.3 198 221.8 0 14-11.3 25.3-25.3 25.3s-25.3-11.3-25.3-25.3c0-95.2-77.5-172.7-172.7-172.7-95.2 0-172.7 77.5-172.7 172.7 0 14-11.3 25.3-25.3 25.3s-25.3-11.3-25.3-25.3c0-114.6 86.7-209.2 198-221.8v-105.5H372.4c-14 0-25.3-11.3-25.3-25.3s11.3-25.3 25.3-25.3h279.1c14 0 25.3 11.3 25.3 25.3s-11.3 25.3-25.2 25.3z"  horiz-adv-x="1024" />

    
    <glyph glyph-name="shoucang" unicode="&#58891;" d="M744.8 768H279.2c-21.3 0-38.7-17.4-38.7-38.7v-690.5c0-13.7 7-26.1 18.8-33.2 11.7-7.1 26-7.5 38.1-1L512 118.3l214.6-113.7c5.7-3 11.9-4.6 18.1-4.6 6.9 0 13.8 1.9 19.9 5.6 11.7 7.1 18.7 19.5 18.7 33.2V729.3c0.2 21.3-17.2 38.7-38.5 38.7z m-12-709.5L530.1 166c-11.3 6-24.9 6-36.2 0L291.2 58.5V717.4h441.7v-658.9z"  horiz-adv-x="1024" />

    
    <glyph glyph-name="suosou" unicode="&#58892;" d="M888.6 44.10000000000002L669.1 263.5c44.9 53.3 72 122.1 72 197 0 169-137.5 306.6-306.5 306.6S128 629.6 128 460.6 265.5 154 434.5 154c75.9 0 145.3 27.8 198.9 73.6l219.3-219.3c4.9-4.9 11.4-7.4 17.9-7.4 6.5 0 13 2.5 17.9 7.4 10 9.9 10 25.9 0.1 35.8z m-710 416.5c0 141.1 114.8 255.9 255.9 255.9s255.9-114.8 255.9-255.9c0-141.1-114.8-255.9-255.9-255.9S178.6 319.4 178.6 460.6z"  horiz-adv-x="1024" />

    
    <glyph glyph-name="wode" unicode="&#58893;" d="M510.1 348.9c112.2 0 203.4 91.2 203.4 203.4s-91.2 203.4-203.4 203.4-203.4-91.2-203.4-203.4 91.2-203.4 203.4-203.4z m0 356.2c84.2 0 152.8-68.5 152.8-152.8 0-84.2-68.5-152.8-152.8-152.8S357.3 468 357.3 552.3c0 84.3 68.5 152.8 152.8 152.8zM895.9 53.39999999999998C884.8 202.70000000000005 716.1 319.6 512 319.6c-204.1 0-372.8-117-383.9-266.2-0.8-10.5 2.9-21 10.1-28.8 7.3-7.8 17.6-12.3 28.2-12.3h691.1c10.7 0 21 4.5 28.2 12.3 7.3 7.8 11 18.2 10.2 28.8z m-715.8 9.5C198.4 179.5 340.7 269 512 269s313.6-89.5 331.9-206.1H180.1z"  horiz-adv-x="1024" />

    
    <glyph glyph-name="touxiang" unicode="&#58894;" d="M512 364.6c79.9 0 144.9 65 144.9 144.9s-65 144.9-144.9 144.9-144.9-65-144.9-144.9 65-144.9 144.9-144.9z m0 239.1c52 0 94.3-42.3 94.3-94.3S564 415.2 512 415.2s-94.3 42.3-94.3 94.3 42.3 94.2 94.3 94.2zM896 384c0 211.7-172.3 384-384 384S128 595.7 128 384c0-83.3 27.3-164.5 77.1-230.8l-0.2-0.4 11.4-13.7 23-27.7 0.9 1.5C311.9 40.8 409.2 0 512 0c102.8 0 200.1 40.8 271.9 112.9l0.9-1.5 23 27.7 11.4 13.7-0.2 0.4c49.7 66.3 77 147.5 77 230.8zM512 717.4c183.8 0 333.4-149.6 333.4-333.4 0-66-19.7-130.5-56-184.9-1 1.4-2.1 2.7-3.1 4-0.8 1-1.6 2.1-2.4 3.1-1.6 2-3.3 4.1-4.9 6.1-0.6 0.8-1.2 1.5-1.9 2.3-2.3 2.7-4.7 5.4-7 8.1-0.4 0.5-0.9 0.9-1.3 1.4-2 2.2-4 4.3-6 6.4-0.9 0.9-1.8 1.8-2.6 2.7-1.6 1.6-3.2 3.3-4.9 4.9-1 1-2 2-3.1 3-1.5 1.5-3.1 3-4.7 4.4l-3.3 3c-1.6 1.4-3.1 2.8-4.7 4.2-1.1 1-2.3 2-3.4 2.9-1.6 1.3-3.2 2.7-4.8 4-1.1 0.9-2.3 1.9-3.4 2.8-1.7 1.3-3.3 2.6-5 3.9-1.1 0.9-2.2 1.7-3.4 2.6-1.8 1.4-3.6 2.7-5.5 4-1 0.8-2.1 1.5-3.1 2.3-2.2 1.5-4.4 3.1-6.7 4.5-0.7 0.5-1.4 1-2.1 1.4-3 1.9-5.9 3.8-8.9 5.7-0.8 0.5-1.5 0.9-2.3 1.4-2.3 1.4-4.5 2.7-6.8 4-1.1 0.6-2.3 1.3-3.4 1.9-2 1.1-3.9 2.2-5.9 3.2-1.3 0.7-2.5 1.3-3.8 2-1.9 1-3.8 1.9-5.7 2.9-1.3 0.7-2.6 1.3-4 1.9l-5.7 2.7c-1.3 0.6-2.7 1.2-4.1 1.8-1.9 0.8-3.8 1.7-5.8 2.5-1.3 0.6-2.7 1.1-4 1.7l-6 2.4-3.9 1.5-6.6 2.4c-1.1 0.4-2.3 0.8-3.4 1.2-2.9 1-5.7 1.9-8.6 2.8-0.5 0.2-1 0.3-1.5 0.5-3.4 1-6.8 2-10.2 2.9-1 0.3-2 0.5-3 0.8-2.4 0.6-4.9 1.3-7.3 1.8l-3.9 0.9c-2.2 0.5-4.3 1-6.5 1.4-1.4 0.3-2.9 0.6-4.3 0.8l-6.3 1.2c-1.5 0.3-3 0.5-4.4 0.7-2.1 0.3-4.1 0.6-6.2 0.9l-4.5 0.6c-2.1 0.3-4.2 0.5-6.3 0.7-1.5 0.2-2.9 0.3-4.4 0.5-2.2 0.2-4.4 0.4-6.6 0.5l-4.2 0.3c-2.4 0.2-4.8 0.3-7.2 0.4-1.2 0.1-2.4 0.1-3.6 0.2-3.6 0.1-7.2 0.2-10.8 0.2-3.6 0-7.2-0.1-10.8-0.2-1.2 0-2.4-0.1-3.6-0.2-2.4-0.1-4.8-0.2-7.2-0.4l-4.2-0.3c-2.2-0.2-4.4-0.3-6.6-0.5-1.5-0.1-2.9-0.3-4.4-0.5-2.1-0.2-4.2-0.5-6.3-0.7l-4.5-0.6c-2.1-0.3-4.2-0.6-6.2-0.9-1.5-0.2-3-0.5-4.4-0.7l-6.3-1.2c-1.4-0.3-2.8-0.5-4.3-0.8-2.2-0.4-4.4-0.9-6.5-1.4l-3.9-0.9c-2.5-0.6-4.9-1.2-7.3-1.8-1-0.3-2-0.5-3-0.8-3.4-0.9-6.8-1.9-10.2-2.9-0.5-0.1-1-0.3-1.4-0.5-2.9-0.9-5.8-1.8-8.7-2.8-1.1-0.4-2.3-0.8-3.4-1.2-2.2-0.8-4.4-1.5-6.6-2.4l-3.9-1.5-6-2.4c-1.3-0.5-2.7-1.1-4-1.7-1.9-0.8-3.9-1.6-5.8-2.5-1.3-0.6-2.7-1.2-4-1.8l-5.7-2.7c-1.3-0.6-2.6-1.3-3.9-1.9-1.9-0.9-3.8-1.9-5.7-2.9-1.2-0.6-2.5-1.3-3.7-2-2-1.1-4-2.2-5.9-3.3-1.1-0.6-2.2-1.2-3.3-1.9-2.3-1.3-4.6-2.7-6.9-4.1-0.7-0.4-1.5-0.9-2.2-1.3l-9-5.7c-0.7-0.4-1.3-0.9-2-1.4-2.3-1.5-4.5-3-6.8-4.6-1-0.7-2.1-1.5-3.1-2.2-1.8-1.3-3.7-2.7-5.5-4-1.1-0.8-2.2-1.7-3.4-2.6-1.7-1.3-3.4-2.6-5.1-4-1.1-0.9-2.3-1.8-3.4-2.8-1.6-1.3-3.2-2.7-4.9-4-1.1-1-2.2-1.9-3.3-2.9-1.6-1.4-3.2-2.8-4.7-4.2-1.1-1-2.2-2-3.2-2.9-1.6-1.5-3.2-3-4.7-4.5-1-1-2-1.9-3-2.9-1.7-1.6-3.3-3.3-4.9-5l-2.6-2.6c-2.1-2.2-4.1-4.3-6.1-6.6-0.4-0.4-0.8-0.9-1.2-1.3-2.4-2.7-4.7-5.4-7.1-8.1-0.6-0.7-1.2-1.5-1.8-2.2-1.7-2-3.4-4.1-5-6.2-0.8-1-1.6-2-2.4-3.1-1.1-1.4-2.1-2.7-3.2-4.1-36.3 54.5-56 119-56 184.9-0.2 184.1 149.4 333.7 333.2 333.7z m-18-666.3c-2 0.1-3.9 0.3-5.9 0.5-4 0.3-8 0.6-12 1-2.3 0.3-4.7 0.6-7 0.9-3.6 0.5-7.1 0.9-10.7 1.5-2.5 0.4-4.9 0.9-7.4 1.4-3.4 0.6-6.7 1.2-10.1 2-2.5 0.5-5 1.2-7.5 1.8-3.2 0.8-6.5 1.6-9.7 2.5-2.5 0.7-5 1.4-7.5 2.2-3.2 0.9-6.3 1.9-9.5 3-2.5 0.8-4.9 1.7-7.4 2.6-3.1 1.1-6.2 2.2-9.2 3.4-2.4 1-4.9 2-7.3 3l-9 3.9c-2.4 1.1-4.7 2.2-7.1 3.3-3 1.4-5.9 2.9-8.8 4.4-2.3 1.2-4.6 2.4-6.9 3.7-2.9 1.6-5.8 3.3-8.6 5-2.2 1.3-4.4 2.6-6.6 4-2.9 1.8-5.7 3.7-8.5 5.5-2.1 1.4-4.2 2.8-6.2 4.2-2.9 2-5.6 4.1-8.4 6.2-1.9 1.4-3.9 2.9-5.8 4.4-2.9 2.3-5.7 4.6-8.5 7-1.7 1.5-3.5 2.9-5.2 4.4-3 2.6-6 5.4-8.9 8.1-1.4 1.3-2.9 2.6-4.3 4-3.7 3.6-7.4 7.4-11 11.2-0.5 0.6-1.1 1.1-1.6 1.6l-0.2 0.2c0.1 0.2 0.2 0.4 0.4 0.6 0.7 1.1 1.5 2.1 2.2 3.1 1.1 1.5 2.1 3.1 3.2 4.6 0.8 1.1 1.6 2.1 2.4 3.2 1.1 1.4 2.2 2.9 3.3 4.3 0.8 1.1 1.7 2.1 2.5 3.2 1.1 1.4 2.2 2.8 3.3 4.1 0.9 1.1 1.8 2.1 2.7 3.1 1.1 1.3 2.3 2.6 3.4 3.9 0.9 1 1.8 2.1 2.8 3.1 1.2 1.3 2.3 2.6 3.5 3.8 0.9 1 1.9 2 2.9 3 1.2 1.2 2.4 2.5 3.7 3.7 1 1 2 1.9 2.9 2.9 1.3 1.2 2.5 2.4 3.8 3.6 1 0.9 2 1.8 3 2.8 1.3 1.2 2.6 2.3 3.9 3.5 1 0.9 2 1.8 3 2.6 1.3 1.1 2.7 2.3 4.1 3.4 1 0.8 2 1.7 3.1 2.5 1.4 1.1 2.8 2.2 4.3 3.3 1 0.8 2 1.6 3.1 2.3l4.5 3.3 3 2.1c1.6 1.1 3.3 2.3 4.9 3.4l2.7 1.8c1.9 1.3 3.9 2.5 5.9 3.7 0.6 0.4 1.3 0.8 1.9 1.2 5.3 3.2 10.6 6.3 16.1 9.2 0.8 0.4 1.6 0.8 2.4 1.3 1.9 1 3.8 2 5.8 3 1 0.5 2 1 3.1 1.5 1.8 0.8 3.5 1.7 5.3 2.5 1.1 0.5 2.3 1 3.4 1.5 1.7 0.7 3.4 1.5 5 2.2l3.6 1.5c1.7 0.7 3.3 1.3 5 2 1.2 0.5 2.5 0.9 3.8 1.4 1.6 0.6 3.3 1.2 5 1.8 1.3 0.4 2.6 0.9 3.8 1.3 1.6 0.5 3.3 1.1 5 1.6l3.9 1.2c1.6 0.5 3.3 1 5 1.4 1.3 0.4 2.7 0.7 4 1.1 1.7 0.4 3.3 0.9 5 1.3 1.3 0.3 2.7 0.7 4 1 1.7 0.4 3.4 0.7 5 1.1 1.4 0.3 2.7 0.6 4.1 0.8l5.1 0.9c1.4 0.2 2.7 0.5 4.1 0.7 1.7 0.3 3.5 0.5 5.2 0.8 1.3 0.2 2.7 0.4 4 0.6l5.4 0.6c1.3 0.1 2.6 0.3 3.9 0.4 1.9 0.2 3.8 0.3 5.7 0.5 1.2 0.1 2.5 0.2 3.7 0.3l6.3 0.3c1.1 0 2.1 0.1 3.1 0.1 3.1 0.1 6.3 0.2 9.4 0.2 3.2 0 6.3-0.1 9.4-0.2 1.1 0 2.1-0.1 3.2-0.1l6.3-0.3c1.2-0.1 2.5-0.2 3.7-0.3 1.9-0.1 3.8-0.3 5.7-0.5 1.3-0.1 2.6-0.3 3.9-0.4l5.4-0.6c1.3-0.2 2.7-0.4 4-0.6 1.7-0.3 3.5-0.5 5.2-0.8 1.4-0.2 2.7-0.5 4.1-0.7l5.1-0.9c1.4-0.3 2.7-0.6 4.1-0.8 1.7-0.4 3.4-0.7 5-1.1 1.4-0.3 2.7-0.6 4.1-1 1.7-0.4 3.3-0.8 5-1.3 1.3-0.4 2.7-0.7 4-1.1 1.7-0.5 3.3-0.9 5-1.4l3.9-1.2c1.7-0.5 3.3-1.1 5-1.6 1.3-0.4 2.6-0.9 3.9-1.3 1.7-0.6 3.3-1.2 4.9-1.8 1.3-0.5 2.5-0.9 3.8-1.4 1.7-0.6 3.3-1.3 5-2l3.6-1.5c1.7-0.7 3.4-1.4 5-2.2 1.1-0.5 2.3-1 3.4-1.5 1.8-0.8 3.5-1.6 5.3-2.5 1-0.5 2.1-1 3.1-1.5 1.9-1 3.9-2 5.8-3 0.8-0.4 1.6-0.8 2.4-1.3 5.5-2.9 10.8-6 16.1-9.2 0.6-0.4 1.3-0.8 1.9-1.2 2-1.2 3.9-2.5 5.9-3.7l2.7-1.8c1.7-1.1 3.3-2.2 5-3.4 1-0.7 2-1.4 2.9-2.1l4.5-3.3c1-0.8 2-1.5 3-2.3 1.4-1.1 2.9-2.2 4.3-3.3 1-0.8 2-1.7 3.1-2.5 1.4-1.1 2.7-2.3 4.1-3.4 1-0.9 2-1.7 3-2.6 1.3-1.2 2.6-2.3 4-3.5l3-2.7c1.3-1.2 2.6-2.4 3.8-3.6 1-0.9 1.9-1.9 2.9-2.9l3.7-3.7c0.9-1 1.9-2 2.8-2.9l3.6-3.9 2.7-3c1.2-1.3 2.3-2.7 3.5-4 0.9-1 1.8-2.1 2.6-3.1 1.1-1.4 2.3-2.8 3.4-4.2 0.8-1 1.7-2.1 2.5-3.1 1.1-1.4 2.2-2.9 3.3-4.4 0.8-1 1.6-2.1 2.3-3.1 1.1-1.5 2.2-3.1 3.3-4.7l2.1-3c0.1-0.2 0.3-0.4 0.4-0.6l-0.2-0.2c-0.5-0.6-1.1-1.1-1.6-1.7-3.6-3.8-7.2-7.6-10.9-11.2-1.4-1.4-3-2.7-4.4-4.1-2.9-2.7-5.8-5.4-8.7-8-1.8-1.6-3.6-3-5.4-4.5-2.7-2.3-5.5-4.6-8.3-6.8l-6-4.5c-2.7-2-5.4-4.1-8.2-6-2.1-1.5-4.3-2.9-6.5-4.4-2.7-1.8-5.5-3.6-8.3-5.4-2.3-1.4-4.5-2.8-6.8-4.1-2.8-1.6-5.6-3.3-8.4-4.8-2.3-1.3-4.7-2.5-7.1-3.8-2.8-1.5-5.7-2.9-8.6-4.3-2.4-1.2-4.9-2.3-7.3-3.4-2.9-1.3-5.8-2.6-8.8-3.8-2.5-1-5-2.1-7.5-3-3-1.2-6-2.3-9-3.4-2.5-0.9-5-1.8-7.6-2.6-3.1-1-6.2-2-9.2-2.9-2.6-0.8-5.1-1.5-7.7-2.2-3.2-0.9-6.4-1.6-9.5-2.4-2.5-0.6-5.1-1.3-7.6-1.8-3.3-0.7-6.6-1.3-10-1.9-2.5-0.5-5-1-7.5-1.4-3.5-0.6-7-1-10.6-1.5-2.4-0.3-4.7-0.7-7.1-0.9-4-0.4-7.9-0.7-11.9-1-2-0.1-4-0.4-6-0.5-6-0.3-12-0.5-18-0.5-5.8-0.5-11.9-0.3-17.8 0z"  horiz-adv-x="1024" />

    
    <glyph glyph-name="shuaxin" unicode="&#58896;" d="M849.2 258.9c-12.7 5.8-27.7 0.1-33.5-12.6-54-118.9-173.2-195.7-303.7-195.7-160.5 0-294.8 114-326.4 265.3l56.1-56.1c4.9-4.9 11.4-7.4 17.9-7.4 6.5 0 13 2.5 17.9 7.4 9.9 9.9 9.9 25.9 0 35.8L171.2 401.9c-1.2 1.2-2.5 2.2-3.9 3.2-0.6 0.4-1.3 0.7-1.9 1.1-0.8 0.4-1.6 0.9-2.4 1.3-0.8 0.3-1.7 0.5-2.5 0.8-0.7 0.2-1.4 0.5-2.2 0.7-1.6 0.3-3.1 0.5-4.7 0.5h-0.2-0.2c-1.6 0-3.2-0.2-4.7-0.5-0.8-0.2-1.5-0.4-2.2-0.7-0.8-0.2-1.7-0.4-2.5-0.8-0.9-0.4-1.6-0.8-2.4-1.3-0.6-0.4-1.3-0.6-1.9-1.1-2.8-1.9-5.2-4.2-7-7-0.4-0.6-0.7-1.3-1-1.9-0.4-0.8-0.9-1.6-1.3-2.4-0.3-0.8-0.5-1.7-0.8-2.6-0.2-0.7-0.5-1.4-0.6-2.2-0.3-1.6-0.5-3.3-0.5-5 0-211.7 172.3-384 384-384 150.3 0 287.6 88.5 349.8 225.4 5.5 12.7-0.1 27.7-12.9 33.5zM880.4 360.6c0.8 0.4 1.6 0.8 2.4 1.3 0.6 0.4 1.3 0.6 1.9 1.1 2.8 1.9 5.2 4.2 7 7 0.4 0.6 0.7 1.3 1 1.9 0.4 0.8 0.9 1.6 1.3 2.4 0.3 0.8 0.5 1.7 0.8 2.6 0.2 0.7 0.5 1.4 0.6 2.2 0.3 1.6 0.5 3.3 0.5 5 0 211.7-172.3 384-384 384-152.1 0-290.1-89.9-351.5-229.1-5.6-12.8 0.1-27.7 12.9-33.4 12.8-5.7 27.7 0.2 33.4 12.9C260.1 639.3 379.9 717.4 512 717.4c160.5 0 294.8-114 326.4-265.3l-56.1 56.1c-9.9 9.9-25.9 9.9-35.8 0-9.9-9.9-9.9-25.9 0-35.8L852.9 366c1.2-1.2 2.5-2.2 3.9-3.2 0.6-0.4 1.3-0.7 1.9-1.1 0.8-0.4 1.6-0.9 2.4-1.3 0.8-0.3 1.7-0.5 2.5-0.8 0.7-0.2 1.4-0.5 2.2-0.6 1.6-0.3 3.3-0.5 5-0.5 1.7 0 3.3 0.2 5 0.5 0.8 0.1 1.5 0.4 2.2 0.6 0.7 0.5 1.5 0.7 2.4 1z"  horiz-adv-x="1024" />

    
    <glyph glyph-name="xihuan" unicode="&#58897;" d="M895.5 563.3c-4.4 74.5-39 131.2-97.4 159.7-78.1 38.1-184.6 17.4-292.3-56.7-74.3 49.3-146.6 75.3-209.2 75.3-59.6 0-107-23.4-137-67.8-44-65-41.9-167.7 5.5-274.7 39-87.8 127.2-222 326.5-362.7l14.1-10 14.4 9.5C649.3 121.2 748 214.1 813.4 312.2c73.7 110.3 85.3 197.4 82.1 251.1z m-124.1-223c-59.2-88.8-148.2-173.7-264.7-252.5-179.9 130.3-259.8 251.9-295.3 331.8-40.3 90.9-44 175.3-9.9 225.8 20.5 30.2 52.4 45.5 95.1 45.5 51.9 0 116.4-23.8 181.6-67.1l28.1-18.7 27.8 19.2c92.4 63.7 180.5 83.1 241.8 53.2 41.2-20.1 65.8-61.7 69.1-117.2 2.7-46-7.8-121.4-73.6-220z"  horiz-adv-x="1024" />

    
    <glyph glyph-name="guanbi" unicode="&#58899;" d="M512 768c-211.7 0-384-172.3-384-384s172.3-384 384-384 384 172.3 384 384-172.3 384-384 384z m0-717.4c-183.8 0-333.4 149.6-333.4 333.4S328.2 717.4 512 717.4 845.4 567.8 845.4 384 695.8 50.6 512 50.6zM651.2 523.2c-9.9 9.9-25.9 9.9-35.8 0L512 419.8 408.6 523.2c-9.9 9.9-25.9 9.9-35.8 0-9.9-9.9-9.9-25.9 0-35.8L476.2 384 372.8 280.6c-9.9-9.9-9.9-25.9 0-35.8 4.9-4.9 11.4-7.4 17.9-7.4s13 2.5 17.9 7.4L512 348.2l103.4-103.4c4.9-4.9 11.4-7.4 17.9-7.4s13 2.5 17.9 7.4c9.9 9.9 9.9 25.9 0 35.8L547.8 384l103.4 103.4c9.9 9.9 9.9 25.9 0 35.8z"  horiz-adv-x="1024" />

    
    <glyph glyph-name="fanhuidingbu" unicode="&#58905;" d="M512 768c-211.7 0-384-172.3-384-384s172.3-384 384-384 384 172.3 384 384-172.3 384-384 384z m0-717.4c-183.8 0-333.4 149.6-333.4 333.4S328.2 717.4 512 717.4 845.4 567.8 845.4 384 695.8 50.6 512 50.6zM540 481.2c-7.5 7.5-17.4 11.6-28 11.6s-20.5-4.1-28-11.6L321.2 318.4c-9.9-9.9-9.9-25.9 0-35.8 9.9-9.9 25.9-9.9 35.8 0l155 155 155-155c4.9-4.9 11.4-7.4 17.9-7.4s13 2.5 17.9 7.4c9.9 9.9 9.9 25.9 0 35.8L540 481.2z"  horiz-adv-x="1024" />

    
    <glyph glyph-name="gouwuche" unicode="&#58906;" d="M888.2 574.8c-7.6 10.3-19.7 16.5-32.5 16.5H337.4l-24.3 75.3c-5.4 16.7-20.8 27.9-38.4 27.9H153.3c-14 0-25.3-11.3-25.3-25.3s11.3-25.3 25.3-25.3h114l135.6-420.8c3.5-10.7 13.4-17.6 24.1-17.6 0.3 0 0.7 0.1 1 0.1 0.2 0 0.5-0.1 0.7-0.1h344.2c14 0 25.3 11.3 25.3 25.3s-11.3 25.3-25.3 25.3H445.4l-24.2 75.3H799c17.7 0 33.1 11.3 38.4 28.2l56.7 179.2c3.9 12.2 1.7 25.7-5.9 36z m-96.7-192.7H404.8l-51.1 158.6h487.9l-50.1-158.6zM486.5 197.1c-34.1 0-61.8-27.7-61.8-61.8s27.7-61.8 61.8-61.8 61.8 27.7 61.8 61.8-27.7 61.8-61.8 61.8z m0-73.1c-6.2 0-11.2 5-11.2 11.2 0 6.2 5 11.2 11.2 11.2 6.2 0 11.2-5 11.2-11.2 0-6.1-5-11.2-11.2-11.2zM710.3 197.1c-34.1 0-61.8-27.7-61.8-61.8s27.7-61.8 61.8-61.8 61.8 27.7 61.8 61.8-27.7 61.8-61.8 61.8z m0-73.1c-6.2 0-11.2 5-11.2 11.2 0 6.2 5 11.2 11.2 11.2s11.2-5 11.2-11.2c0-6.1-5.1-11.2-11.2-11.2z"  horiz-adv-x="1024" />

    
    <glyph glyph-name="gengduo" unicode="&#58907;" d="M870.7 245.1H348.9c-14 0-25.3-11.3-25.3-25.3s11.3-25.3 25.3-25.3h521.8c14 0 25.3 11.3 25.3 25.3s-11.3 25.3-25.3 25.3zM270.7 245.1H153.3c-14 0-25.3-11.3-25.3-25.3s11.3-25.3 25.3-25.3h117.4c14 0 25.3 11.3 25.3 25.3s-11.3 25.3-25.3 25.3zM870.7 409.3H348.9c-14 0-25.3-11.3-25.3-25.3s11.3-25.3 25.3-25.3h521.8c14 0 25.3 11.3 25.3 25.3s-11.3 25.3-25.3 25.3zM270.7 409.3H153.3c-14 0-25.3-11.3-25.3-25.3s11.3-25.3 25.3-25.3h117.4c14 0 25.3 11.3 25.3 25.3s-11.3 25.3-25.3 25.3zM348.9 522.9h521.8c14 0 25.3 11.3 25.3 25.3s-11.3 25.3-25.3 25.3H348.9c-14 0-25.3-11.3-25.3-25.3s11.3-25.3 25.3-25.3zM270.7 573.5H153.3c-14 0-25.3-11.3-25.3-25.3s11.3-25.3 25.3-25.3h117.4c14 0 25.3 11.3 25.3 25.3s-11.3 25.3-25.3 25.3z"  horiz-adv-x="1024" />

    
    <glyph glyph-name="icon_pinglunxingxing_h" unicode="&#58968;" d="M668.2 568.9c310.7-8.3 342.7-110.9 96-307.8 88.5-310.3 4.7-373.7-251.4-190.2-256.1-183.5-339.9-120.1-251.4 190.2C14.7 458 46.7 560.6 357.4 568.9c103.6 305.2 207.2 305.2 310.8 0z"  horiz-adv-x="1024" />

    


  </font>
</defs>
</svg>
